SplineFontDB: 3.2
FontName: Estedad-Medium
FullName: Estedad Medium
FamilyName: Estedad Medium
Weight: Medium
Copyright: Copyright (c) 2017-2019 by Amin Abedi (@aminabedi68)-www.opentypeshop.com and Copyright (c) 2019 by Amin Abedi (@aminabedi68)-www.fontamin.com,\nwith Reserved Font Name Estedad.\n\nThis Font Software is licensed under the SIL Open Font License, Version 1.1.
Version: 3.0
ItalicAngle: 0
UnderlinePosition: -650
UnderlineWidth: 125
Ascent: 1638
Descent: 410
InvalidEm: 0
sfntRevision: 0x00030000
UFOAscent: 1638
UFODescent: -410
LayerCount: 2
Layer: 0 0 "Back" 1
Layer: 1 0 "public.default" 0
StyleMap: 0x0000
FSType: 0
OS2Version: 0
OS2_WeightWidthSlopeOnly: 0
OS2_UseTypoMetrics: 0
CreationTime: 1571651474
ModificationTime: 1571651803
PfmFamily: 16
TTFWeight: 500
TTFWidth: 5
LineGap: 0
VLineGap: 0
OS2TypoAscent: 2200
OS2TypoAOffset: 0
OS2TypoDescent: -1200
OS2TypoDOffset: 0
OS2TypoLinegap: 0
OS2WinAscent: 2200
OS2WinAOffset: 0
OS2WinDescent: 1200
OS2WinDOffset: 0
HheadAscent: 2200
HheadAOffset: 0
HheadDescent: -1200
HheadDOffset: 0
OS2CapHeight: 1400
OS2XHeight: 1012
OS2Vendor: 'AA68'
Lookup: 1 1 0 "finaTerminalFormsinArabiclookup2" { "finaTerminalFormsinArabiclookup2 subtable"  } ['fina' ('arab' <'dflt' 'FAR ' 'KUR ' > ) ]
Lookup: 1 1 0 "mediMedialFormsinArabiclookup3" { "mediMedialFormsinArabiclookup3 subtable"  } ['medi' ('arab' <'dflt' 'FAR ' 'KUR ' > ) ]
Lookup: 1 1 0 "initInitialFormsinArabiclookup4" { "initInitialFormsinArabiclookup4 subtable"  } ['init' ('arab' <'dflt' 'FAR ' 'KUR ' > ) ]
Lookup: 4 1 1 "rligRequiredLigaturesinArabiclookup5" { "rligRequiredLigaturesinArabiclookup5 subtable"  } ['rlig' ('arab' <'dflt' 'FAR ' 'KUR ' > ) ]
Lookup: 4 0 1 "ccmpGlyphCompositionDecompositionlookup6" { "ccmpGlyphCompositionDecompositionlookup6 subtable"  } ['rlig' ('arab' <'dflt' 'FAR ' 'KUR ' > ) ]
Lookup: 2 0 0 "Multiplesubstitution0" { "Multiplesubstitution0 subtable"  } []
Lookup: 2 0 0 "Multiplesubstitution1" { "Multiplesubstitution1 subtable"  } []

StartChar: A
Encoding: 65 65 0
Width: 1364
VWidth: 0
GlyphClass: 2
Flags: HW
LayerCount: 2
Fore
SplineSet
442 572 m 257
 922 572 l 257
 682 1205 l 257
 442 572 l 257
227 0 m 257
 15 0 l 257
 588 1472 l 257
 777 1472 l 257
 1349 0 l 257
 1137 0 l 257
 984 412 l 257
 381 412 l 257
 227 0 l 257
EndSplineSet
EndChar

StartChar: AE
Encoding: 198 198 1
Width: 1875
VWidth: 0
GlyphClass: 2
Flags: HW
LayerCount: 2
Fore
SplineSet
846 1186 m 257
 816 1186 l 257
 500 525 l 257
 846 525 l 257
 846 1186 l 257
738 1472 m 257
 1806 1472 l 257
 1806 1302 l 257
 1046 1302 l 257
 1046 798 l 257
 1806 798 l 257
 1806 638 l 257
 1046 638 l 257
 1046 170 l 257
 1806 170 l 257
 1806 0 l 257
 846 0 l 257
 846 365 l 257
 421 365 l 257
 244 0 l 257
 25 0 l 257
 738 1472 l 257
EndSplineSet
EndChar

StartChar: B
Encoding: 66 66 8
Width: 1331
VWidth: 0
GlyphClass: 2
Flags: HW
LayerCount: 2
Fore
SplineSet
160 1472 m 257
 725 1472 l 258
 969 1472 1163 1281 1163 1049 c 256
 1163 928 1108 823 1022 753 c 257
 1146 683 1226 554 1226 406 c 256
 1226 172 1030 0 788 0 c 258
 160 0 l 257
 160 1472 l 257
360 651 m 257
 360 170 l 257
 788 170 l 258
 918 170 1026 257 1026 406 c 256
 1026 557 915 651 788 651 c 258
 360 651 l 257
725 811 m 258
 855 811 963 900 963 1049 c 256
 963 1199 853 1302 725 1302 c 258
 360 1302 l 257
 360 811 l 257
 725 811 l 258
EndSplineSet
EndChar

StartChar: C
Encoding: 67 67 9
Width: 1345
VWidth: 0
GlyphClass: 2
Flags: HW
LayerCount: 2
Fore
SplineSet
1106 283 m 257
 1252 160 l 257
 1140 52 985 -20 788 -20 c 256
 324 -20 108 354 108 741 c 256
 108 1128 324 1492 788 1492 c 256
 984 1492 1138 1422 1252 1313 c 257
 1106 1190 l 257
 1028 1264 932 1322 788 1322 c 256
 469 1322 308 1078 308 741 c 256
 308 404 470 150 788 150 c 256
 929 150 1025 207 1106 283 c 257
EndSplineSet
EndChar

StartChar: D
Encoding: 68 68 11
Width: 1389
VWidth: 0
GlyphClass: 2
Flags: HW
LayerCount: 2
Fore
SplineSet
600 1472 m 258
 1069 1472 1282 1123 1282 730 c 256
 1282 337 1069 0 600 0 c 258
 160 0 l 257
 160 1472 l 257
 600 1472 l 258
600 1302 m 258
 360 1302 l 257
 360 170 l 257
 600 170 l 258
 926 170 1082 376 1082 730 c 256
 1082 1083 926 1302 600 1302 c 258
EndSplineSet
EndChar

StartChar: E
Encoding: 69 69 12
Width: 1121
VWidth: 0
GlyphClass: 2
Flags: HW
LayerCount: 2
Fore
SplineSet
1066 170 m 257
 1066 0 l 257
 160 0 l 257
 160 1472 l 257
 1066 1472 l 257
 1066 1302 l 257
 360 1302 l 257
 360 810 l 257
 1066 810 l 257
 1066 650 l 257
 360 650 l 257
 360 170 l 257
 1066 170 l 257
EndSplineSet
EndChar

StartChar: F
Encoding: 70 70 18
Width: 1116
VWidth: 0
GlyphClass: 2
Flags: HW
LayerCount: 2
Fore
SplineSet
360 0 m 257
 160 0 l 257
 160 1472 l 257
 1066 1472 l 257
 1066 1302 l 257
 360 1302 l 257
 360 810 l 257
 950 810 l 257
 950 650 l 257
 360 650 l 257
 360 0 l 257
EndSplineSet
EndChar

StartChar: G
Encoding: 71 71 19
Width: 1500
VWidth: 0
GlyphClass: 2
Flags: HW
LayerCount: 2
Fore
SplineSet
758 622 m 257
 756 780 l 257
 1360 784 l 257
 1360 475 l 258
 1360 221 1224 -20 811 -20 c 256
 347 -20 130 354 130 741 c 256
 130 1128 347 1492 811 1492 c 256
 1005 1492 1181 1429 1302 1313 c 257
 1156 1190 l 257
 1084 1260 959 1312 811 1312 c 256
 492 1312 330 1078 330 741 c 256
 330 404 493 160 811 160 c 256
 1109 160 1160 283 1160 475 c 258
 1160 622 l 257
 758 622 l 257
EndSplineSet
EndChar

StartChar: GAFbar
Encoding: 1114112 -1 20
Width: 999
VWidth: 0
GlyphClass: 2
Flags: HW
LayerCount: 2
Fore
SplineSet
818 1926 m 257
 840 1816 l 257
 584 1764 324 1661 106 1521 c 257
 45 1616 l 257
 277 1764 550 1870 818 1926 c 257
EndSplineSet
EndChar

StartChar: H
Encoding: 72 72 21
Width: 1389
VWidth: 0
GlyphClass: 2
Flags: HW
LayerCount: 2
Fore
SplineSet
1029 1472 m 257
 1229 1472 l 257
 1229 0 l 257
 1029 0 l 257
 1029 672 l 257
 360 672 l 257
 360 0 l 257
 160 0 l 257
 160 1472 l 257
 360 1472 l 257
 360 832 l 257
 1029 832 l 257
 1029 1472 l 257
EndSplineSet
EndChar

StartChar: I
Encoding: 73 73 24
Width: 590
VWidth: 0
GlyphClass: 2
Flags: HW
LayerCount: 2
Fore
SplineSet
395 0 m 257
 195 0 l 257
 195 1472 l 257
 395 1472 l 257
 395 0 l 257
EndSplineSet
EndChar

StartChar: J
Encoding: 74 74 29
Width: 915
VWidth: 0
GlyphClass: 2
Flags: HW
LayerCount: 2
Fore
SplineSet
60 46 m 257
 166 199 l 257
 204 171 254 150 322 150 c 256
 462 150 556 203 556 405 c 258
 556 1472 l 257
 756 1472 l 257
 756 405 l 258
 756 113 554 -20 322 -20 c 256
 227 -20 140 0 60 46 c 257
EndSplineSet
EndChar

StartChar: K
Encoding: 75 75 30
Width: 1296
VWidth: 0
GlyphClass: 2
Flags: HW
LayerCount: 2
Fore
SplineSet
1008 1472 m 257
 1271 1472 l 257
 610 758 l 257
 1266 0 l 257
 1012 0 l 257
 478 617 l 257
 360 492 l 257
 360 0 l 257
 160 0 l 257
 160 1472 l 257
 360 1472 l 257
 360 770 l 257
 1008 1472 l 257
EndSplineSet
EndChar

StartChar: L
Encoding: 76 76 31
Width: 1111
VWidth: 0
GlyphClass: 2
Flags: HW
LayerCount: 2
Fore
SplineSet
1066 170 m 257
 1066 0 l 257
 160 0 l 257
 160 1472 l 257
 360 1472 l 257
 360 170 l 257
 1066 170 l 257
EndSplineSet
EndChar

StartChar: M
Encoding: 77 77 32
Width: 1835
VWidth: 0
GlyphClass: 2
Flags: HW
LayerCount: 2
Fore
SplineSet
360 0 m 257
 160 0 l 257
 160 1472 l 257
 372 1472 l 257
 894 237 l 257
 1466 1472 l 257
 1675 1472 l 257
 1675 0 l 257
 1475 0 l 257
 1475 1078 l 257
 983 0 l 257
 798 0 l 257
 360 1050 l 257
 360 0 l 257
EndSplineSet
EndChar

StartChar: N
Encoding: 78 78 33
Width: 1436
VWidth: 0
GlyphClass: 2
Flags: HW
LayerCount: 2
Fore
SplineSet
1076 1472 m 257
 1276 1472 l 257
 1276 0 l 257
 1076 0 l 257
 360 1140 l 257
 360 0 l 257
 160 0 l 257
 160 1472 l 257
 359 1472 l 257
 1076 332 l 257
 1076 1472 l 257
EndSplineSet
EndChar

StartChar: O
Encoding: 79 79 35
Width: 1572
VWidth: 0
GlyphClass: 2
Flags: HW
LayerCount: 2
Fore
SplineSet
786 1492 m 256
 1250 1492 1467 1117 1467 730 c 256
 1467 343 1250 -20 786 -20 c 256
 322 -20 105 343 105 730 c 256
 105 1117 322 1492 786 1492 c 256
786 1322 m 256
 467 1322 305 1067 305 730 c 256
 305 393 468 150 786 150 c 256
 1104 150 1267 393 1267 730 c 256
 1267 1067 1105 1322 786 1322 c 256
EndSplineSet
EndChar

StartChar: OE
Encoding: 338 338 36
Width: 1710
VWidth: 0
GlyphClass: 2
Flags: HW
LayerCount: 2
Fore
SplineSet
679 188 m 257
 679 1285 l 257
 413 1255 275 1038 275 730 c 256
 275 422 413 218 679 188 c 257
1585 1472 m 257
 1585 1302 l 257
 879 1302 l 257
 879 810 l 257
 1585 810 l 257
 1585 650 l 257
 879 650 l 257
 879 170 l 257
 1585 170 l 257
 1585 0 l 257
 756 0 l 258
 292 0 75 343 75 730 c 256
 75 1117 292 1472 756 1472 c 258
 1585 1472 l 257
EndSplineSet
EndChar

StartChar: P
Encoding: 80 80 43
Width: 1255
VWidth: 0
GlyphClass: 2
Flags: HW
LayerCount: 2
Fore
SplineSet
360 0 m 257
 160 0 l 257
 160 1472 l 257
 725 1472 l 258
 969 1472 1163 1292 1163 1060 c 256
 1163 826 967 652 725 652 c 258
 360 652 l 257
 360 0 l 257
360 1302 m 257
 360 822 l 257
 725 822 l 258
 855 822 963 911 963 1060 c 256
 963 1210 853 1302 725 1302 c 258
 360 1302 l 257
EndSplineSet
EndChar

StartChar: R
Encoding: 82 82 45
Width: 1323
VWidth: 0
GlyphClass: 2
Flags: HW
LayerCount: 2
Fore
SplineSet
160 1472 m 257
 725 1472 l 258
 969 1472 1163 1292 1163 1060 c 256
 1163 926 1095 810 993 740 c 257
 1097 667 1163 551 1163 417 c 258
 1163 0 l 257
 963 0 l 257
 963 427 l 258
 963 568 852 662 725 662 c 258
 360 662 l 257
 360 0 l 257
 160 0 l 257
 160 1472 l 257
360 822 m 257
 725 822 l 258
 855 822 963 911 963 1060 c 256
 963 1210 853 1302 725 1302 c 258
 360 1302 l 257
 360 822 l 257
EndSplineSet
EndChar

StartChar: S
Encoding: 83 83 46
Width: 1216
VWidth: 0
GlyphClass: 2
Flags: HW
LayerCount: 2
Fore
SplineSet
85 436 m 257
 285 436 l 257
 285 257 425 150 622 150 c 256
 798 150 931 234 931 394 c 256
 931 524 810 601 588 660 c 256
 400 710 115 820 115 1090 c 256
 115 1351 348 1492 595 1492 c 256
 871 1492 1101 1323 1101 1036 c 257
 901 1036 l 257
 901 1212 782 1322 595 1322 c 256
 427 1322 315 1237 315 1084 c 256
 315 960 430 869 646 811 c 256
 840 760 1131 663 1131 384 c 256
 1131 104 860 -20 622 -20 c 256
 356 -20 85 130 85 436 c 257
EndSplineSet
EndChar

StartChar: T
Encoding: 84 84 47
Width: 1240
VWidth: 0
GlyphClass: 2
Flags: HW
LayerCount: 2
Fore
SplineSet
720 0 m 257
 520 0 l 257
 520 1302 l 257
 45 1302 l 257
 45 1472 l 257
 1195 1472 l 257
 1195 1302 l 257
 720 1302 l 257
 720 0 l 257
EndSplineSet
EndChar

StartChar: Thorn
Encoding: 222 222 54
Width: 1189
VWidth: 0
GlyphClass: 2
Flags: HW
LayerCount: 2
Fore
SplineSet
365 474 m 257
 602 474 l 258
 774 474 894 558 894 730 c 256
 894 902 774 986 602 986 c 258
 365 986 l 257
 365 474 l 257
365 0 m 257
 165 0 l 257
 165 1472 l 257
 365 1472 l 257
 365 1146 l 257
 602 1146 l 258
 852 1146 1094 1015 1094 730 c 256
 1094 445 852 314 602 314 c 258
 365 314 l 257
 365 0 l 257
EndSplineSet
EndChar

StartChar: U
Encoding: 85 85 55
Width: 1381
VWidth: 0
GlyphClass: 2
Flags: HW
LayerCount: 2
Fore
SplineSet
1028 1472 m 257
 1228 1472 l 257
 1228 483 l 258
 1228 185 984 -20 690 -20 c 256
 396 -20 152 185 152 483 c 258
 152 1472 l 257
 352 1472 l 257
 352 473 l 258
 352 269 504 150 690 150 c 256
 876 150 1028 269 1028 473 c 258
 1028 1472 l 257
EndSplineSet
EndChar

StartChar: V
Encoding: 86 86 60
Width: 1364
VWidth: 0
GlyphClass: 2
Flags: HW
LayerCount: 2
Fore
SplineSet
1137 1472 m 257
 1349 1472 l 257
 772 0 l 257
 592 0 l 257
 15 1472 l 257
 227 1472 l 257
 682 279 l 257
 1137 1472 l 257
EndSplineSet
EndChar

StartChar: W
Encoding: 87 87 61
Width: 2004
VWidth: 0
GlyphClass: 2
Flags: HW
LayerCount: 2
Fore
SplineSet
1752 1472 m 257
 1959 1472 l 257
 1530 0 l 257
 1326 0 l 257
 1002 1183 l 257
 676 0 l 257
 473 0 l 257
 45 1472 l 257
 252 1472 l 257
 575 289 l 257
 901 1472 l 257
 1103 1472 l 257
 1428 289 l 257
 1752 1472 l 257
EndSplineSet
EndChar

StartChar: X
Encoding: 88 88 62
Width: 1272
VWidth: 0
GlyphClass: 2
Flags: HW
LayerCount: 2
Fore
SplineSet
1242 0 m 257
 1009 0 l 257
 636 586 l 257
 263 0 l 257
 30 0 l 257
 519 729 l 257
 30 1472 l 257
 263 1472 l 257
 636 872 l 257
 1009 1472 l 257
 1242 1472 l 257
 753 729 l 257
 1242 0 l 257
EndSplineSet
EndChar

StartChar: Y
Encoding: 89 89 63
Width: 1238
VWidth: 0
GlyphClass: 2
Flags: HW
LayerCount: 2
Fore
SplineSet
993 1472 m 257
 1224 1472 l 257
 720 670 l 257
 720 0 l 257
 520 0 l 257
 520 670 l 257
 15 1472 l 257
 246 1472 l 257
 620 844 l 257
 993 1472 l 257
EndSplineSet
EndChar

StartChar: Z
Encoding: 90 90 65
Width: 1300
VWidth: 0
GlyphClass: 2
Flags: HW
LayerCount: 2
Fore
SplineSet
75 1302 m 257
 75 1472 l 257
 1225 1472 l 257
 1225 1314 l 257
 308 170 l 257
 1225 170 l 257
 1225 0 l 257
 75 0 l 257
 75 158 l 257
 992 1302 l 257
 75 1302 l 257
EndSplineSet
EndChar

StartChar: a
Encoding: 97 97 66
Width: 1047
VWidth: 0
GlyphClass: 2
Flags: HW
LayerCount: 2
Fore
SplineSet
952 0 m 257
 758 0 l 257
 730 96 710 201 710 358 c 258
 710 768 l 258
 710 874 631 938 501 938 c 256
 369 938 294 874 294 768 c 257
 94 768 l 257
 94 995 296 1110 501 1110 c 256
 690 1110 910 1003 910 774 c 258
 910 358 l 258
 910 210 928 80 952 0 c 257
EndSplineSet
Refer: 317 57355 N 1 0 0 1 -26 0 2
EndChar

StartChar: acute
Encoding: 180 180 69
Width: 517
VWidth: 0
GlyphClass: 2
Flags: HW
LayerCount: 2
Fore
SplineSet
322 1534 m 257
 398 1487 l 257
 195 1162 l 257
 120 1210 l 257
 322 1534 l 257
EndSplineSet
EndChar

StartChar: ae
Encoding: 230 230 71
Width: 1769
VWidth: 0
GlyphClass: 2
Flags: HW
LayerCount: 2
Fore
SplineSet
914 486 m 257
 934 268 1060 148 1254 148 c 256
 1344 148 1460 172 1576 230 c 257
 1655 89 l 257
 1503 13 1355 -20 1230 -20 c 256
 1022 -20 878 70 794 217 c 257
 720 75 574 -20 402 -20 c 256
 209 -20 70 106 70 298 c 256
 70 573 344 654 596 654 c 256
 632 654 668 652 705 648 c 257
 705 738 l 258
 705 844 640 940 496 940 c 256
 360 940 289 874 289 768 c 257
 89 768 l 257
 89 995 286 1110 496 1110 c 256
 638 1110 766 1036 838 928 c 257
 916 1025 1034 1110 1198 1110 c 256
 1544 1110 1700 827 1700 556 c 258
 1700 486 l 257
 914 486 l 257
914 626 m 257
 1490 626 l 257
 1465 816 1366 940 1198 940 c 256
 1030 940 938 817 914 626 c 257
705 506 m 257
 666 511 628 513 594 513 c 256
 404 513 264 446 264 312 c 256
 264 206 332 154 432 154 c 256
 585 154 705 263 705 411 c 258
 705 506 l 257
EndSplineSet
EndChar

StartChar: ampersand
Encoding: 38 38 73
Width: 1238
VWidth: 0
GlyphClass: 2
Flags: HW
LayerCount: 2
Fore
SplineSet
508 884 m 257
 649 960 739 1028 739 1146 c 256
 739 1221 683 1300 569 1300 c 256
 451 1300 390 1217 390 1116 c 256
 390 1064 404 1023 440 975 c 258
 508 884 l 257
772 206 m 257
 451 638 l 257
 359 578 300 516 300 400 c 256
 300 258 392 158 570 158 c 256
 648 158 718 176 772 206 c 257
1024 184 m 257
 1131 42 l 257
 961 -54 l 257
 875 61 l 257
 789 13 685 -12 570 -12 c 256
 302 -12 100 156 100 400 c 256
 100 589 215 706 339 788 c 257
 276 872 l 257
 216 944 190 1034 190 1116 c 256
 190 1294 325 1470 569 1470 c 256
 795 1470 939 1314 939 1146 c 256
 939 932 764 813 620 735 c 257
 894 359 l 257
 924 411 938 476 938 554 c 257
 1138 554 l 257
 1138 404 1106 285 1024 184 c 257
EndSplineSet
EndChar

StartChar: asciicircum
Encoding: 94 94 75
Width: 704
VWidth: 0
GlyphClass: 2
Flags: HW
LayerCount: 2
Fore
SplineSet
622 1190 m 257
 552 1134 l 257
 352 1387 l 257
 152 1134 l 257
 82 1190 l 257
 310 1480 l 257
 394 1480 l 257
 622 1190 l 257
EndSplineSet
EndChar

StartChar: asciitilde
Encoding: 126 126 76
Width: 868
VWidth: 0
GlyphClass: 2
Flags: HW
LayerCount: 2
Fore
SplineSet
70 1184 m 257
 124 1310 209 1368 288 1368 c 256
 352 1368 401 1347 461 1302 c 256
 513 1264 537 1252 581 1252 c 256
 611 1252 670 1284 716 1388 c 257
 798 1352 l 257
 744 1228 663 1162 581 1162 c 256
 516 1162 464 1186 407 1230 c 256
 354 1270 332 1278 288 1278 c 256
 254 1278 199 1252 154 1148 c 257
 70 1184 l 257
EndSplineSet
EndChar

StartChar: asterisk
Encoding: 42 42 77
Width: 1133
VWidth: 0
GlyphClass: 2
Flags: HW
LayerCount: 2
Fore
SplineSet
164 1127 m 257
 208 1262 l 257
 494 1168 l 257
 494 1471 l 257
 638 1471 l 257
 638 1168 l 257
 925 1262 l 257
 970 1127 l 257
 682 1032 l 257
 860 788 l 257
 745 704 l 257
 566 949 l 257
 388 704 l 257
 272 788 l 257
 450 1032 l 257
 164 1127 l 257
EndSplineSet
EndChar

StartChar: at
Encoding: 64 64 78
Width: 2261
VWidth: 0
GlyphClass: 2
Flags: HW
LayerCount: 2
Fore
SplineSet
1146 1112 m 256
 1368 1112 1474 1032 1580 948 c 257
 1526 328 l 258
 1525 320 1525 316 1525 304 c 256
 1525 198 1605 133 1694 133 c 256
 1838 133 1966 300 1966 555 c 256
 1966 1031 1581 1402 1131 1402 c 256
 681 1402 295 1031 295 555 c 256
 295 79 679 -290 1131 -290 c 256
 1219 -290 1304 -278 1383 -252 c 257
 1430 -369 l 257
 1337 -399 1237 -415 1131 -415 c 256
 581 -415 150 27 150 555 c 256
 150 1083 580 1526 1131 1526 c 256
 1682 1526 2111 1083 2111 555 c 256
 2111 295 1977 -21 1654 -21 c 256
 1526 -21 1434 38 1384 122 c 257
 1298 27 1183 -21 1063 -21 c 256
 830 -21 602 133 602 477 c 256
 602 873 844 1112 1146 1112 c 256
1146 942 m 256
 984 942 802 811 802 477 c 256
 802 215 939 149 1063 149 c 256
 1171 149 1317 234 1341 505 c 258
 1373 880 l 257
 1320 916 1264 942 1146 942 c 256
EndSplineSet
EndChar

StartChar: b
Encoding: 98 98 80
Width: 1228
VWidth: 0
GlyphClass: 2
Flags: HW
LayerCount: 2
Fore
SplineSet
345 0 m 257
 145 0 l 257
 145 1472 l 257
 345 1472 l 257
 345 0 l 257
EndSplineSet
Refer: 321 57359 N 1 0 0 1 25 0 2
EndChar

StartChar: backslash
Encoding: 92 92 81
Width: 1019
VWidth: 0
GlyphClass: 2
Flags: HW
LayerCount: 2
Fore
SplineSet
970 46 m 257
 791 -44 l 257
 50 1412 l 257
 228 1502 l 257
 970 46 l 257
EndSplineSet
EndChar

StartChar: bar
Encoding: 124 124 82
Width: 440
VWidth: 0
GlyphClass: 2
Flags: HW
LayerCount: 2
Fore
SplineSet
120 1472 m 257
 320 1472 l 257
 320 -415 l 257
 120 -415 l 257
 120 1472 l 257
EndSplineSet
EndChar

StartChar: braceleft
Encoding: 123 123 83
Width: 756
VWidth: 0
GlyphClass: 2
Flags: HW
LayerCount: 2
Fore
SplineSet
372 737 m 257
 441 679 485 595 485 497 c 258
 485 240 l 258
 485 187 505 170 557 170 c 258
 681 170 l 257
 681 0 l 257
 522 0 l 258
 388 0 285 91 285 215 c 258
 285 497 l 258
 285 577 235 628 170 646 c 258
 100 666 l 257
 100 808 l 257
 170 828 l 258
 235 846 285 897 285 977 c 258
 285 1258 l 258
 285 1382 388 1472 522 1472 c 258
 681 1472 l 257
 681 1304 l 257
 557 1304 l 258
 505 1304 485 1287 485 1234 c 258
 485 977 l 258
 485 879 441 795 372 737 c 257
EndSplineSet
EndChar

StartChar: braceright
Encoding: 125 125 84
Width: 756
VWidth: 0
GlyphClass: 2
Flags: HW
LayerCount: 2
Fore
SplineSet
410 737 m 257
 341 795 296 879 296 977 c 258
 296 1234 l 258
 296 1287 276 1304 224 1304 c 258
 100 1304 l 257
 100 1472 l 257
 259 1472 l 258
 393 1472 496 1382 496 1258 c 258
 496 977 l 258
 496 897 547 846 612 828 c 258
 681 808 l 257
 681 666 l 257
 612 646 l 258
 547 628 496 577 496 497 c 258
 496 215 l 258
 496 91 393 0 259 0 c 258
 100 0 l 257
 100 170 l 257
 224 170 l 258
 276 170 296 187 296 240 c 258
 296 497 l 258
 296 595 341 679 410 737 c 257
EndSplineSet
EndChar

StartChar: bracketleft
Encoding: 91 91 85
Width: 642
VWidth: 0
GlyphClass: 2
Flags: HW
LayerCount: 2
Fore
SplineSet
567 170 m 257
 567 0 l 257
 120 0 l 257
 120 1472 l 257
 567 1472 l 257
 567 1302 l 257
 320 1302 l 257
 320 170 l 257
 567 170 l 257
EndSplineSet
EndChar

StartChar: bracketright
Encoding: 93 93 86
Width: 642
VWidth: 0
GlyphClass: 2
Flags: HW
LayerCount: 2
Fore
SplineSet
75 1302 m 257
 75 1472 l 257
 522 1472 l 257
 522 0 l 257
 75 0 l 257
 75 170 l 257
 322 170 l 257
 322 1302 l 257
 75 1302 l 257
EndSplineSet
EndChar

StartChar: brokenbar
Encoding: 166 166 87
Width: 440
VWidth: 0
GlyphClass: 2
Flags: HW
LayerCount: 2
Fore
SplineSet
320 874 m 257
 120 874 l 257
 120 1472 l 257
 320 1472 l 257
 320 874 l 257
320 0 m 257
 120 0 l 257
 120 568 l 257
 320 568 l 257
 320 0 l 257
EndSplineSet
EndChar

StartChar: c
Encoding: 99 99 88
Width: 1077
VWidth: 0
GlyphClass: 2
Flags: HW
LayerCount: 2
Fore
SplineSet
820 318 m 257
 1002 242 l 257
 930 94 785 -20 569 -20 c 256
 223 -20 75 275 75 544 c 256
 75 813 222 1110 569 1110 c 256
 785 1110 926 998 1002 850 c 257
 820 774 l 257
 772 869 701 940 569 940 c 256
 379 940 275 772 275 544 c 256
 275 316 379 150 569 150 c 256
 701 150 770 222 820 318 c 257
EndSplineSet
EndChar

StartChar: cedilla
Encoding: 184 184 90
Width: 723
VWidth: 0
GlyphClass: 2
Flags: HW
LayerCount: 2
Fore
SplineSet
162 -320 m 257
 208 -362 265 -383 347 -383 c 256
 436 -383 508 -338 508 -294 c 256
 508 -206 412 -85 316 -12 c 257
 374 76 l 257
 502 -16 602 -148 602 -294 c 256
 602 -440 454 -488 346 -488 c 256
 243 -488 167 -457 101 -389 c 257
 162 -320 l 257
EndSplineSet
EndChar

StartChar: cent
Encoding: 162 162 91
Width: 1077
VWidth: 0
GlyphClass: 2
Flags: HW
LayerCount: 2
Fore
SplineSet
669 989 m 257
 469 989 l 257
 469 1472 l 257
 669 1472 l 257
 669 989 l 257
669 -354 m 257
 469 -354 l 257
 469 126 l 257
 669 126 l 257
 669 -354 l 257
EndSplineSet
Refer: 88 99 N 1 0 0 1 0 0 2
EndChar

StartChar: comma
Encoding: 44 44 93
Width: 477
VWidth: 0
GlyphClass: 2
Flags: HW
LayerCount: 2
Fore
SplineSet
218 -211 m 257
 160 -166 l 257
 188 -135 268 -32 268 72 c 257
 184 72 138 110 138 188 c 256
 138 253 186 297 244 297 c 256
 318 297 364 247 364 149 c 256
 364 -16 281 -134 218 -211 c 257
EndSplineSet
EndChar

StartChar: copyright
Encoding: 169 169 94
Width: 1790
VWidth: 0
GlyphClass: 2
Flags: HW
LayerCount: 2
Fore
SplineSet
310 746 m 256
 310 410 581 152 895 152 c 256
 1209 152 1480 410 1480 746 c 256
 1480 1082 1209 1340 895 1340 c 256
 581 1340 310 1082 310 746 c 256
110 746 m 256
 110 1166 453 1520 895 1520 c 256
 1337 1520 1680 1166 1680 746 c 256
 1680 326 1337 -28 895 -28 c 256
 453 -28 110 326 110 746 c 256
1222 1002 m 257
 1100 927 l 257
 1048 990 970 1024 895 1024 c 256
 751 1024 630 905 630 748 c 256
 630 592 751 472 895 472 c 256
 970 472 1048 506 1100 569 c 257
 1222 494 l 257
 1144 399 1022 342 895 342 c 256
 647 342 480 538 480 748 c 256
 480 957 647 1154 895 1154 c 256
 1022 1154 1144 1097 1222 1002 c 257
EndSplineSet
EndChar

StartChar: currency
Encoding: 164 164 95
Width: 1347
VWidth: 0
GlyphClass: 2
Flags: HW
LayerCount: 2
Fore
SplineSet
489 934 m 257
 328 828 l 257
 65 1129 l 257
 226 1235 l 257
 489 934 l 257
328 285 m 257
 489 179 l 257
 226 -122 l 257
 65 -16 l 257
 328 285 l 257
1019 828 m 257
 858 934 l 257
 1121 1235 l 257
 1282 1129 l 257
 1019 828 l 257
858 179 m 257
 1019 285 l 257
 1282 -16 l 257
 1121 -122 l 257
 858 179 l 257
EndSplineSet
Refer: 147 111 N 1 0 0 1 105 0 2
EndChar

StartChar: d
Encoding: 100 100 96
Width: 1228
VWidth: 0
GlyphClass: 2
Flags: HW
LayerCount: 2
Fore
SplineSet
1083 0 m 257
 883 0 l 257
 883 1472 l 257
 1083 1472 l 257
 1083 0 l 257
EndSplineSet
Refer: 321 57359 N -1 0 0 -1 1203 1090 2
EndChar

StartChar: degree
Encoding: 176 176 97
Width: 646
VWidth: 0
GlyphClass: 2
Flags: HW
LayerCount: 2
Fore
SplineSet
470 1452 m 256
 470 1535 406 1598 323 1598 c 256
 240 1598 176 1535 176 1452 c 256
 176 1369 240 1304 323 1304 c 256
 406 1304 470 1369 470 1452 c 256
560 1452 m 256
 560 1320 455 1214 323 1214 c 256
 191 1214 86 1320 86 1452 c 256
 86 1584 191 1688 323 1688 c 256
 455 1688 560 1584 560 1452 c 256
EndSplineSet
EndChar

StartChar: dotlessi
Encoding: 305 305 104
Width: 450
VWidth: 0
GlyphClass: 2
Flags: HW
LayerCount: 2
Fore
SplineSet
125 1090 m 257
 325 1090 l 257
 325 0 l 257
 125 0 l 257
 125 1090 l 257
EndSplineSet
EndChar

StartChar: e
Encoding: 101 101 107
Width: 1131
VWidth: 0
GlyphClass: 2
Flags: HW
LayerCount: 2
Fore
SplineSet
280 474 m 257
 298 234 444 151 634 151 c 256
 739 151 857 176 964 222 c 257
 1020 89 l 257
 880 13 738 -20 610 -20 c 256
 301 -20 70 176 70 544 c 256
 70 813 217 1110 564 1110 c 256
 910 1110 1062 815 1062 544 c 258
 1061 474 l 257
 280 474 l 257
279 614 m 257
 852 614 l 257
 827 804 732 940 564 940 c 256
 396 940 303 805 279 614 c 257
EndSplineSet
EndChar

StartChar: eight
Encoding: 56 56 112
Width: 1157
VWidth: 0
GlyphClass: 2
Flags: HW
LayerCount: 2
Fore
SplineSet
793 1098 m 256
 793 1197 735 1300 579 1300 c 256
 423 1300 364 1196 364 1098 c 256
 364 948 418 878 578 878 c 256
 738 878 793 948 793 1098 c 256
300 400 m 256
 300 262 393 158 579 158 c 256
 765 158 857 261 857 400 c 256
 857 566 724 698 578 698 c 256
 426 698 300 570 300 400 c 256
838 788 m 257
 964 710 1057 554 1057 400 c 256
 1057 164 863 -12 579 -12 c 256
 295 -12 100 164 100 400 c 256
 100 555 192 710 318 788 c 257
 224 851 164 972 164 1098 c 256
 164 1270 296 1470 579 1470 c 256
 862 1470 993 1270 993 1098 c 256
 993 970 933 850 838 788 c 257
EndSplineSet
EndChar

StartChar: eth
Encoding: 240 240 114
Width: 1138
VWidth: 0
GlyphClass: 2
Flags: HW
LayerCount: 2
Fore
SplineSet
569 940 m 256
 379 940 275 772 275 544 c 256
 275 316 379 150 569 150 c 256
 759 150 863 316 863 544 c 256
 863 772 759 940 569 940 c 256
569 1110 m 256
 634 1110 692 1099 742 1079 c 257
 696 1147 643 1213 584 1269 c 257
 437 1150 l 257
 343 1267 l 257
 465 1366 l 257
 405 1407 342 1435 278 1447 c 257
 306 1594 l 257
 407 1575 502 1530 589 1466 c 257
 728 1579 l 257
 822 1462 l 257
 703 1366 l 257
 937 1131 1063 842 1063 544 c 256
 1063 275 915 -20 569 -20 c 256
 223 -20 75 275 75 544 c 256
 75 813 222 1110 569 1110 c 256
EndSplineSet
EndChar

StartChar: exclam
Encoding: 33 33 115
Width: 610
VWidth: 0
GlyphClass: 2
Flags: HW
LayerCount: 2
Fore
SplineSet
405 432 m 257
 205 432 l 257
 205 1484 l 257
 405 1484 l 257
 405 432 l 257
EndSplineSet
Refer: 165 46 N 1 0 0 1 30 0 2
EndChar

StartChar: f
Encoding: 102 102 117
Width: 685
VWidth: 0
GlyphClass: 2
Flags: HW
LayerCount: 2
Fore
SplineSet
674 1507 m 257
 674 1364 l 257
 481 1364 l 258
 437 1364 400 1331 400 1279 c 258
 400 0 l 257
 200 0 l 257
 200 1279 l 258
 200 1419 316 1544 476 1544 c 257
 548 1544 616 1529 674 1507 c 257
EndSplineSet
Refer: 316 57354 N 1 0 0 1 -45 478 2
EndChar

StartChar: five
Encoding: 53 53 119
Width: 1214
VWidth: 0
GlyphClass: 2
Flags: HW
LayerCount: 2
Fore
SplineSet
135 414 m 257
 335 414 l 257
 335 256 409 158 583 158 c 256
 798 158 902 256 902 514 c 256
 902 746 792 880 583 880 c 256
 490 880 368 827 280 756 c 257
 150 822 l 257
 212 1460 l 257
 1102 1460 l 257
 1102 1290 l 257
 394 1290 l 257
 368 998 l 257
 440 1028 513 1040 583 1040 c 256
 919 1040 1102 810 1102 514 c 256
 1102 188 913 -12 583 -12 c 256
 289 -12 135 175 135 414 c 257
EndSplineSet
EndChar

StartChar: four
Encoding: 52 52 120
Width: 1202
VWidth: 0
GlyphClass: 2
Flags: HW
LayerCount: 2
Fore
SplineSet
759 496 m 257
 759 1171 l 257
 290 496 l 257
 759 496 l 257
1147 496 m 257
 1147 336 l 257
 959 336 l 257
 959 -12 l 257
 759 -12 l 257
 759 336 l 257
 75 336 l 257
 75 480 l 257
 756 1460 l 257
 959 1460 l 257
 959 496 l 257
 1147 496 l 257
EndSplineSet
EndChar

StartChar: g
Encoding: 103 103 121
Width: 1233
VWidth: 0
GlyphClass: 2
Flags: HW
LayerCount: 2
Fore
SplineSet
888 1090 m 257
 1088 1090 l 257
 1088 96 l 258
 1088 -266 843 -430 567 -430 c 256
 409 -430 249 -378 112 -296 c 257
 187 -159 l 257
 292 -223 423 -262 545 -262 c 256
 729 -262 888 -172 888 64 c 258
 888 1090 l 257
EndSplineSet
Refer: 321 57359 N -1 0 0 -1 1208 1090 2
EndChar

StartChar: germandbls
Encoding: 223 223 122
Width: 1199
VWidth: 0
GlyphClass: 2
Flags: HW
LayerCount: 2
Fore
SplineSet
552 0 m 257
 552 180 l 257
 839 180 909 191 909 283 c 256
 909 347 868 387 796 438 c 256
 724 489 614 568 614 716 c 256
 614 820 659 880 701 934 c 256
 739 982 775 1029 775 1106 c 256
 775 1232 707 1322 567 1322 c 256
 421 1322 360 1234 360 1088 c 258
 360 0 l 257
 160 0 l 257
 160 1088 l 258
 160 1292 287 1492 567 1492 c 256
 841 1492 975 1294 975 1088 c 256
 975 976 926 894 872 844 c 256
 837 809 811 776 811 723 c 256
 811 665 854 626 920 580 c 256
 1000 523 1109 432 1109 278 c 256
 1109 40 942 0 552 0 c 257
EndSplineSet
EndChar

StartChar: grave
Encoding: 96 96 123
Width: 524
VWidth: 0
GlyphClass: 2
Flags: HW
LayerCount: 2
Fore
SplineSet
402 1210 m 257
 326 1162 l 257
 122 1486 l 257
 198 1535 l 257
 402 1210 l 257
EndSplineSet
EndChar

StartChar: greater
Encoding: 62 62 124
Width: 775
VWidth: 0
GlyphClass: 2
Flags: HW
LayerCount: 2
Fore
SplineSet
202 172 m 257
 120 258 l 257
 514 631 l 257
 120 1004 l 257
 202 1090 l 257
 686 631 l 257
 202 172 l 257
EndSplineSet
EndChar

StartChar: h
Encoding: 104 104 127
Width: 1148
VWidth: 0
GlyphClass: 2
Flags: HW
LayerCount: 2
Fore
SplineSet
335 0 m 257
 135 0 l 257
 135 1472 l 257
 335 1472 l 257
 335 0 l 257
EndSplineSet
Refer: 319 57357 N 1 0 0 1 35 0 2
EndChar

StartChar: hyphen
Encoding: 45 45 128
Width: 993
VWidth: 0
GlyphClass: 2
Flags: HW
LayerCount: 2
Fore
SplineSet
898 614 m 257
 898 454 l 257
 95 454 l 257
 95 614 l 257
 898 614 l 257
EndSplineSet
EndChar

StartChar: k
Encoding: 107 107 135
Width: 1049
VWidth: 0
GlyphClass: 2
Flags: HW
LayerCount: 2
Fore
SplineSet
791 1090 m 257
 1049 1090 l 257
 551 544 l 257
 1013 0 l 257
 762 0 l 257
 422 400 l 257
 340 311 l 257
 340 0 l 257
 140 0 l 257
 140 1472 l 257
 340 1472 l 257
 340 596 l 257
 791 1090 l 257
EndSplineSet
EndChar

StartChar: l
Encoding: 108 108 136
Width: 510
VWidth: 0
GlyphClass: 2
Flags: HW
LayerCount: 2
Fore
SplineSet
355 0 m 257
 155 0 l 257
 155 1472 l 257
 355 1472 l 257
 355 0 l 257
EndSplineSet
EndChar

StartChar: less
Encoding: 60 60 137
Width: 775
VWidth: 0
GlyphClass: 2
Flags: HW
LayerCount: 2
Fore
SplineSet
558 1090 m 257
 641 1004 l 257
 247 632 l 257
 641 258 l 257
 558 172 l 257
 74 632 l 257
 558 1090 l 257
EndSplineSet
EndChar

StartChar: logicalnot
Encoding: 172 172 138
Width: 1073
VWidth: 0
GlyphClass: 2
Flags: HW
LayerCount: 2
Fore
SplineSet
75 444 m 257
 75 624 l 257
 953 624 l 257
 953 236 l 257
 753 236 l 257
 753 444 l 257
 75 444 l 257
EndSplineSet
EndChar

StartChar: m
Encoding: 109 109 139
Width: 1646
VWidth: 0
GlyphClass: 2
Flags: HW
LayerCount: 2
Fore
SplineSet
135 1090 m 257
 335 1090 l 257
 335 0 l 257
 135 0 l 257
 135 1090 l 257
EndSplineSet
Refer: 318 57356 N 1 0 0 1 -533 0 2
Refer: 318 57356 N 1 0 0 1 55 0 2
EndChar

StartChar: mu
Encoding: 181 181 141
Width: 1138
VWidth: 0
GlyphClass: 2
Flags: HW
LayerCount: 2
Fore
SplineSet
135 1090 m 257
 335 1090 l 257
 335 381 l 258
 335 268 373 170 519 170 c 256
 691 170 803 282 803 450 c 258
 803 1090 l 257
 1003 1090 l 257
 1003 0 l 257
 803 0 l 257
 803 105 l 257
 725 34 621 -10 499 -10 c 256
 428 -10 374 7 335 34 c 257
 335 -598 l 257
 135 -598 l 257
 135 1090 l 257
EndSplineSet
EndChar

StartChar: n
Encoding: 110 110 143
Width: 1148
VWidth: 0
GlyphClass: 2
Flags: HW
LayerCount: 2
Fore
SplineSet
335 0 m 257
 135 0 l 257
 135 1090 l 257
 335 1090 l 257
 335 0 l 257
EndSplineSet
Refer: 319 57357 N 1 0 0 1 35 0 2
EndChar

StartChar: nine
Encoding: 57 57 144
Width: 1210
VWidth: 0
GlyphClass: 2
Flags: HW
LayerCount: 2
Fore
SplineSet
890 794 m 257
 879 1098 808 1300 577 1300 c 256
 405 1300 295 1164 295 991 c 256
 295 785 414 682 564 682 c 256
 670 682 784 718 890 794 c 257
877 605 m 257
 779 547 664 518 564 518 c 256
 293 518 95 686 95 986 c 256
 95 1237 267 1470 577 1470 c 256
 1033 1470 1090 1040 1090 746 c 256
 1090 274 896 -12 547 -12 c 256
 367 -12 228 42 112 138 c 257
 208 260 l 257
 308 186 408 159 520 159 c 256
 717 159 869 286 877 605 c 257
EndSplineSet
EndChar

StartChar: numbersign
Encoding: 35 35 146
Width: 1713
VWidth: 0
GlyphClass: 2
Flags: HW
LayerCount: 2
Fore
SplineSet
452 -23 m 257
 258 22 l 257
 380 434 l 257
 110 434 l 257
 110 594 l 257
 436 594 l 257
 522 900 l 257
 202 900 l 257
 202 1060 l 257
 578 1060 l 257
 704 1481 l 257
 898 1436 l 257
 786 1060 l 257
 1126 1060 l 257
 1252 1481 l 257
 1446 1436 l 257
 1334 1060 l 257
 1603 1060 l 257
 1603 900 l 257
 1278 900 l 257
 1192 594 l 257
 1511 594 l 257
 1511 434 l 257
 1136 434 l 257
 1000 -23 l 257
 806 22 l 257
 928 434 l 257
 588 434 l 257
 452 -23 l 257
1070 900 m 257
 730 900 l 257
 644 594 l 257
 984 594 l 257
 1070 900 l 257
EndSplineSet
EndChar

StartChar: o
Encoding: 111 111 147
Width: 1143
VWidth: 0
GlyphClass: 2
Flags: HW
LayerCount: 2
Fore
SplineSet
572 940 m 256
 382 940 278 772 278 544 c 256
 278 316 382 150 572 150 c 256
 762 150 866 316 866 544 c 256
 866 772 762 940 572 940 c 256
572 1110 m 256
 919 1110 1066 813 1066 544 c 256
 1066 275 918 -20 572 -20 c 256
 226 -20 78 275 78 544 c 256
 78 813 225 1110 572 1110 c 256
EndSplineSet
EndChar

StartChar: one
Encoding: 49 49 153
Width: 932
VWidth: 0
GlyphClass: 2
Flags: HW
LayerCount: 2
Fore
SplineSet
203 1064 m 257
 200 1224 l 257
 358 1224 l 258
 460 1225 488 1242 508 1302 c 257
 508 1471 l 257
 708 1471 l 257
 708 -12 l 257
 508 -12 l 257
 508 1098 l 257
 456 1074 393 1065 319 1065 c 258
 203 1064 l 257
EndSplineSet
EndChar

StartChar: onehalf
Encoding: 189 189 154
Width: 2096
VWidth: 0
GlyphClass: 2
Flags: HW
LayerCount: 2
Fore
SplineSet
633 -38 m 257
 464 58 l 257
 1526 1465 l 257
 1694 1369 l 257
 633 -38 l 257
2006 -252 m 257
 2006 -422 l 257
 1219 -422 l 257
 1219 -269 l 257
 1723 217 l 258
 1779 269 1812 328 1812 416 c 256
 1812 542 1726 613 1612 613 c 256
 1502 613 1420 538 1420 389 c 257
 1220 389 l 257
 1220 639 1398 783 1612 783 c 256
 1809 783 2006 648 2006 404 c 256
 2006 256 1941 163 1867 93 c 258
 1514 -252 l 257
 2006 -252 l 257
125 1207 m 257
 125 1367 l 257
 223 1367 l 258
 323 1367 353 1382 371 1442 c 257
 371 1601 l 257
 571 1601 l 257
 571 491 l 257
 371 491 l 257
 371 1240 l 257
 319 1215 256 1207 182 1207 c 258
 125 1207 l 257
EndSplineSet
EndChar

StartChar: onequarter
Encoding: 188 188 155
Width: 1965
VWidth: 0
GlyphClass: 2
Flags: HW
LayerCount: 2
Fore
SplineSet
125 1207 m 257
 125 1367 l 257
 223 1367 l 258
 323 1367 353 1382 371 1442 c 257
 371 1601 l 257
 571 1601 l 257
 571 491 l 257
 371 491 l 257
 371 1240 l 257
 319 1215 256 1207 182 1207 c 258
 125 1207 l 257
1840 2 m 257
 1840 -158 l 257
 1719 -158 l 257
 1719 -397 l 257
 1519 -397 l 257
 1519 -158 l 257
 1005 -158 l 257
 1005 -28 l 257
 1524 776 l 257
 1719 776 l 257
 1719 2 l 257
 1840 2 l 257
1519 2 m 257
 1519 457 l 257
 1226 2 l 257
 1519 2 l 257
636 -38 m 257
 468 58 l 257
 1528 1465 l 257
 1696 1369 l 257
 636 -38 l 257
EndSplineSet
EndChar

StartChar: ordfeminine
Encoding: 170 170 156
Width: 747
VWidth: 0
GlyphClass: 2
Flags: HW
LayerCount: 2
Fore
SplineSet
495 1266 m 257
 495 1330 l 258
 495 1399 438 1434 350 1434 c 256
 260 1434 208 1400 208 1326 c 257
 118 1326 l 257
 118 1472 242 1524 350 1524 c 256
 454 1524 585 1473 585 1330 c 258
 585 1076 l 258
 585 988 609 963 629 949 c 257
 573 878 l 257
 551 896 530 920 516 956 c 257
 463 900 393 872 310 872 c 256
 191 872 105 948 105 1054 c 256
 105 1215 251 1272 411 1272 c 256
 441 1272 467 1270 495 1266 c 257
495 1176 m 257
 463 1180 441 1182 411 1182 c 256
 261 1182 195 1138 195 1054 c 256
 195 1004 229 962 310 962 c 256
 400 962 461 1002 495 1084 c 257
 495 1176 l 257
EndSplineSet
EndChar

StartChar: p
Encoding: 112 112 160
Width: 1223
VWidth: 0
GlyphClass: 2
Flags: HW
LayerCount: 2
Fore
SplineSet
140 1090 m 257
 340 1090 l 257
 340 -410 l 257
 140 -410 l 257
 140 1090 l 257
EndSplineSet
Refer: 321 57359 N 1 0 0 1 20 0 2
EndChar

StartChar: paragraph
Encoding: 182 182 161
Width: 1301
VWidth: 0
GlyphClass: 2
Flags: HW
LayerCount: 2
Fore
SplineSet
708 1302 m 257
 566 1302 l 258
 434 1302 300 1191 300 988 c 256
 300 785 434 674 566 674 c 258
 708 674 l 257
 708 1302 l 257
1166 -415 m 257
 1006 -415 l 257
 1006 1302 l 257
 868 1302 l 257
 868 -415 l 257
 708 -415 l 257
 708 504 l 257
 566 504 l 258
 298 504 100 721 100 988 c 256
 100 1255 298 1472 566 1472 c 258
 1166 1472 l 257
 1166 -415 l 257
EndSplineSet
EndChar

StartChar: parenleft
Encoding: 40 40 162
Width: 598
VWidth: 0
GlyphClass: 2
Flags: HW
LayerCount: 2
Fore
SplineSet
496 56 m 257
 328 -52 l 257
 186 171 100 422 100 730 c 256
 100 1038 186 1287 328 1510 c 257
 496 1402 l 257
 372 1210 300 1004 300 730 c 256
 300 456 372 248 496 56 c 257
EndSplineSet
EndChar

StartChar: parenright
Encoding: 41 41 163
Width: 598
VWidth: 0
GlyphClass: 2
Flags: HW
LayerCount: 2
Fore
SplineSet
102 1402 m 257
 270 1510 l 257
 412 1287 498 1036 498 728 c 256
 498 420 412 171 270 -52 c 257
 102 56 l 257
 226 248 298 454 298 728 c 256
 298 1002 226 1210 102 1402 c 257
EndSplineSet
EndChar

StartChar: period
Encoding: 46 46 165
Width: 550
VWidth: 0
GlyphClass: 2
Flags: HW
LayerCount: 2
Fore
SplineSet
155 118 m 256
 155 184 210 236 276 236 c 256
 342 236 395 184 395 118 c 256
 395 52 342 0 276 0 c 256
 210 0 155 52 155 118 c 256
EndSplineSet
EndChar

StartChar: plus
Encoding: 43 43 167
Width: 993
VWidth: 0
GlyphClass: 2
Flags: HW
LayerCount: 2
Fore
SplineSet
898 614 m 257
 898 454 l 257
 586 454 l 257
 586 132 l 257
 406 132 l 257
 406 454 l 257
 95 454 l 257
 95 614 l 257
 406 614 l 257
 406 934 l 257
 586 934 l 257
 586 614 l 257
 898 614 l 257
EndSplineSet
EndChar

StartChar: q
Encoding: 113 113 169
Width: 1223
VWidth: 0
GlyphClass: 2
Flags: HW
LayerCount: 2
Fore
SplineSet
883 1090 m 257
 1083 1090 l 257
 1083 -410 l 257
 883 -410 l 257
 883 1090 l 257
EndSplineSet
Refer: 321 57359 N -1 0 0 -1 1203 1090 2
EndChar

StartChar: question
Encoding: 63 63 170
Width: 1067
VWidth: 0
GlyphClass: 2
Flags: HW
LayerCount: 2
Fore
SplineSet
308 982 m 257
 110 958 l 257
 105 994 100 1036 100 1070 c 256
 100 1286 244 1482 528 1482 c 256
 809 1482 967 1266 967 1030 c 256
 967 867 878 792 790 730 c 256
 700 666 613 600 613 426 c 257
 413 426 l 257
 413 646 525 744 623 820 c 256
 703 882 766 938 766 1056 c 256
 766 1200 678 1312 528 1312 c 256
 371 1312 300 1218 300 1070 c 256
 300 1037 302 1011 308 982 c 257
EndSplineSet
Refer: 165 46 N -1 0 0 1 795 0 2
EndChar

StartChar: quoteleft
Encoding: 8216 8216 175
Width: 598
VWidth: 0
GlyphClass: 2
Flags: HW
LayerCount: 2
Fore
SplineSet
276 770 m 257
 202 883 138 1064 138 1226 c 256
 138 1350 197 1434 307 1434 c 256
 416 1434 460 1361 460 1272 c 256
 460 1104 246 1224 246 1124 c 256
 246 1038 294 893 342 818 c 257
 276 770 l 257
EndSplineSet
EndChar

StartChar: quoteright
Encoding: 8217 8217 176
Width: 598
VWidth: 0
GlyphClass: 2
Flags: HW
LayerCount: 2
Fore
SplineSet
322 770 m 257
 256 818 l 257
 304 893 352 1038 352 1124 c 256
 352 1224 138 1104 138 1272 c 256
 138 1361 182 1434 291 1434 c 256
 401 1434 460 1350 460 1226 c 256
 460 1064 396 883 322 770 c 257
EndSplineSet
EndChar

StartChar: quotesingle
Encoding: 39 39 177
Width: 400
VWidth: 0
GlyphClass: 2
Flags: HW
LayerCount: 2
Fore
SplineSet
135 1440 m 257
 265 1440 l 257
 265 914 l 257
 135 914 l 257
 135 1440 l 257
EndSplineSet
EndChar

StartChar: r
Encoding: 114 114 178
Width: 749
VWidth: 0
GlyphClass: 2
Flags: HW
LayerCount: 2
Fore
SplineSet
140 1090 m 257
 340 1090 l 257
 340 0 l 257
 140 0 l 257
 140 1090 l 257
EndSplineSet
Refer: 320 57358 N 1 0 0 1 40 -1 2
EndChar

StartChar: registered
Encoding: 174 174 179
Width: 1790
VWidth: 0
GlyphClass: 2
Flags: HW
LayerCount: 2
Fore
SplineSet
110 746 m 256
 110 1166 453 1520 895 1520 c 256
 1337 1520 1680 1166 1680 746 c 256
 1680 326 1337 -28 895 -28 c 256
 453 -28 110 326 110 746 c 256
310 746 m 256
 310 410 581 152 895 152 c 256
 1209 152 1480 410 1480 746 c 256
 1480 1082 1209 1340 895 1340 c 256
 581 1340 310 1082 310 746 c 256
755 718 m 257
 926 718 l 258
 1025 718 1102 776 1102 872 c 256
 1102 968 1026 1028 926 1028 c 258
 755 1028 l 257
 755 718 l 257
1225 401 m 257
 1103 326 l 257
 888 588 l 257
 755 588 l 257
 755 364 l 257
 605 364 l 257
 605 1158 l 257
 926 1158 l 258
 1104 1158 1252 1038 1252 872 c 256
 1252 747 1167 652 1052 612 c 257
 1225 401 l 257
EndSplineSet
EndChar

StartChar: s
Encoding: 115 115 180
Width: 1019
VWidth: 0
GlyphClass: 2
Flags: HW
LayerCount: 2
Fore
SplineSet
80 337 m 257
 280 337 l 257
 280 221 373 160 509 160 c 256
 645 160 739 222 739 330 c 256
 739 428 666 470 494 489 c 256
 355 505 95 544 95 766 c 256
 95 1008 325 1100 509 1100 c 256
 694 1100 922 1007 922 766 c 257
 722 766 l 257
 722 872 639 930 509 930 c 256
 382 930 295 874 295 776 c 256
 295 696 354 658 520 638 c 256
 668 620 939 576 939 337 c 256
 939 87 701 -10 509 -10 c 256
 317 -10 80 88 80 337 c 257
EndSplineSet
EndChar

StartChar: section
Encoding: 167 167 181
Width: 1052
VWidth: 0
GlyphClass: 2
Flags: HW
LayerCount: 2
Fore
SplineSet
102 306 m 257
 302 306 l 257
 302 192 392 142 526 142 c 256
 662 142 752 192 752 290 c 257
 752 358 690 385 510 409 c 256
 358 429 100 470 100 712 c 256
 100 826 156 912 234 966 c 257
 158 1006 100 1068 100 1166 c 256
 100 1412 335 1509 526 1509 c 256
 717 1509 951 1412 951 1166 c 257
 751 1166 l 257
 751 1280 662 1329 526 1329 c 256
 390 1329 300 1278 300 1180 c 257
 300 1110 362 1088 542 1060 c 256
 697 1037 952 992 952 748 c 256
 952 636 900 555 824 503 c 257
 896 463 952 402 952 306 c 256
 952 60 717 -38 526 -38 c 256
 334 -38 102 61 102 306 c 257
518 882 m 257
 390 880 300 826 300 712 c 256
 300 634 358 612 534 588 c 257
 667 590 752 637 752 748 c 256
 752 834 692 856 518 882 c 257
EndSplineSet
EndChar

StartChar: seven
Encoding: 55 55 183
Width: 1125
VWidth: 0
GlyphClass: 2
Flags: HW
LayerCount: 2
Fore
SplineSet
70 1290 m 257
 70 1460 l 257
 968 1460 l 257
 1020 1318 l 257
 412 -31 l 257
 225 32 l 257
 798 1290 l 257
 70 1290 l 257
EndSplineSet
EndChar

StartChar: simpledot
Encoding: 1114127 -1 184
Width: 2433
VWidth: 0
GlyphClass: 2
Flags: HW
LayerCount: 2
Fore
SplineSet
1048 156 m 257
 1187 294 l 257
 1326 156 l 257
 1187 17 l 257
 1048 156 l 257
EndSplineSet
EndChar

StartChar: six
Encoding: 54 54 185
Width: 1195
VWidth: 0
GlyphClass: 2
Flags: HW
LayerCount: 2
Fore
SplineSet
640 776 m 256
 534 776 421 740 315 664 c 257
 326 360 397 158 628 158 c 256
 800 158 910 295 910 468 c 256
 910 674 790 776 640 776 c 256
642 940 m 256
 913 940 1110 772 1110 472 c 256
 1110 221 938 -12 628 -12 c 256
 172 -12 115 418 115 712 c 256
 115 1174 308 1470 658 1470 c 256
 838 1470 977 1416 1093 1320 c 257
 996 1198 l 257
 896 1272 797 1300 685 1300 c 256
 489 1300 336 1164 328 854 c 257
 426 912 542 940 642 940 c 256
EndSplineSet
EndChar

StartChar: slash
Encoding: 47 47 186
Width: 1050
VWidth: 0
GlyphClass: 2
Flags: HW
LayerCount: 2
Fore
SplineSet
770 1499 m 257
 951 1415 l 257
 280 -41 l 257
 99 43 l 257
 770 1499 l 257
EndSplineSet
EndChar

StartChar: sterling
Encoding: 163 163 188
Width: 1284
VWidth: 0
GlyphClass: 2
Flags: HW
LayerCount: 2
Fore
SplineSet
609 1312 m 256
 541 1312 472 1254 472 1164 c 258
 472 297 l 258
 472 251 463 206 439 170 c 257
 1174 170 l 257
 1174 0 l 257
 110 0 l 257
 110 170 l 257
 215 170 272 199 272 297 c 258
 272 1154 l 258
 272 1327 412 1482 609 1482 c 256
 799 1482 920 1354 946 1188 c 257
 749 1162 l 257
 738 1246 687 1312 609 1312 c 256
EndSplineSet
Refer: 316 57354 N 1 0 0 1 35 36 2
EndChar

StartChar: t
Encoding: 116 116 189
Width: 710
VWidth: 0
GlyphClass: 2
Flags: HW
LayerCount: 2
Fore
SplineSet
660 175 m 257
 660 32 l 257
 606 10 541 -5 475 -5 c 257
 315 -5 199 120 199 260 c 258
 199 1384 l 257
 399 1384 l 257
 399 260 l 258
 399 208 436 175 480 175 c 258
 660 175 l 257
EndSplineSet
Refer: 316 57354 N 1 0 0 1 -60 478 2
EndChar

StartChar: three
Encoding: 51 51 191
Width: 1184
VWidth: 0
GlyphClass: 2
Flags: HW
LayerCount: 2
Fore
SplineSet
80 446 m 257
 280 446 l 257
 280 252 402 158 578 158 c 256
 740 158 879 234 879 410 c 256
 879 606 745 694 569 694 c 258
 471 694 l 257
 471 854 l 257
 569 854 l 258
 745 854 840 950 840 1072 c 256
 840 1225 725 1300 591 1300 c 256
 435 1300 339 1224 339 1056 c 257
 139 1056 l 257
 139 1344 363 1470 591 1470 c 256
 806 1470 1040 1340 1040 1072 c 256
 1040 952 980 841 883 778 c 257
 1000 708 1079 576 1079 410 c 256
 1079 105 800 -12 578 -12 c 256
 326 -12 80 132 80 446 c 257
EndSplineSet
EndChar

StartChar: threequarters
Encoding: 190 190 192
Width: 2140
VWidth: 0
GlyphClass: 2
Flags: HW
LayerCount: 2
Fore
SplineSet
2015 2 m 257
 2015 -158 l 257
 1894 -158 l 257
 1894 -397 l 257
 1694 -397 l 257
 1694 -158 l 257
 1180 -158 l 257
 1180 -28 l 257
 1700 776 l 257
 1894 776 l 257
 1894 2 l 257
 2015 2 l 257
1694 2 m 257
 1694 456 l 257
 1401 2 l 257
 1694 2 l 257
426 948 m 258
 325 948 l 257
 325 1108 l 257
 426 1108 l 258
 568 1108 635 1155 635 1289 c 256
 635 1375 550 1461 443 1461 c 256
 338 1461 250 1401 250 1246 c 257
 50 1246 l 257
 50 1500 235 1631 443 1631 c 256
 653 1631 835 1481 835 1289 c 256
 835 1177 791 1087 713 1028 c 257
 791 970 835 880 835 768 c 256
 835 576 653 426 443 426 c 256
 235 426 50 556 50 810 c 257
 250 810 l 257
 250 656 337 596 443 596 c 256
 551 596 635 682 635 768 c 256
 635 901 569 948 426 948 c 258
811 -38 m 257
 642 58 l 257
 1704 1465 l 257
 1872 1369 l 257
 811 -38 l 257
EndSplineSet
EndChar

StartChar: two
Encoding: 50 50 193
Width: 1183
VWidth: 0
GlyphClass: 2
Flags: HW
LayerCount: 2
Fore
SplineSet
1088 0 m 257
 90 0 l 257
 90 145 l 258
 90 441 375 578 639 668 c 256
 834 736 876 868 876 1008 c 256
 876 1206 740 1301 586 1301 c 256
 438 1301 297 1189 297 968 c 257
 97 968 l 257
 97 1276 322 1471 586 1471 c 256
 845 1471 1076 1296 1076 1008 c 256
 1076 836 1010 612 717 512 c 256
 473 428 298 332 298 182 c 258
 298 170 l 257
 1088 170 l 257
 1088 0 l 257
EndSplineSet
EndChar

StartChar: u
Encoding: 117 117 194
Width: 1148
VWidth: 0
GlyphClass: 2
Flags: HW
LayerCount: 2
Fore
SplineSet
813 1090 m 257
 1013 1090 l 257
 1013 0 l 257
 813 0 l 257
 813 1090 l 257
EndSplineSet
Refer: 319 57357 N -1 0 0 -1 1113 1092 2
EndChar

StartChar: underscore
Encoding: 95 95 199
Width: 666
VWidth: 0
GlyphClass: 2
Flags: HW
LayerCount: 2
Fore
SplineSet
691 198 m 257
 691 -2 l 257
 -25 -2 l 257
 -25 198 l 257
 691 198 l 257
EndSplineSet
EndChar

StartChar: uni00B2
Encoding: 178 178 202
Width: 658
VWidth: 0
GlyphClass: 2
Flags: HW
LayerCount: 2
Fore
SplineSet
105 898 m 257
 105 985 l 257
 382 1234 l 258
 410 1262 423 1278 423 1326 c 256
 423 1400 371 1434 309 1434 c 256
 243 1434 195 1399 195 1322 c 257
 105 1322 l 257
 105 1458 209 1524 309 1524 c 256
 407 1524 513 1459 513 1326 c 256
 513 1252 479 1202 444 1170 c 258
 238 988 l 257
 513 988 l 257
 513 898 l 257
 105 898 l 257
EndSplineSet
EndChar

StartChar: uni00B3
Encoding: 179 179 203
Width: 606
VWidth: 0
GlyphClass: 2
Flags: HW
LayerCount: 2
Fore
SplineSet
195 1340 m 257
 105 1340 l 257
 105 1448 197 1524 303 1524 c 256
 407 1524 501 1449 501 1344 c 256
 501 1289 474 1242 433 1210 c 257
 473 1179 501 1131 501 1076 c 256
 501 971 407 898 303 898 c 256
 197 898 105 974 105 1082 c 257
 195 1082 l 257
 195 1033 235 988 303 988 c 256
 367 988 411 1031 411 1076 c 256
 411 1121 367 1166 303 1166 c 258
 237 1166 l 257
 237 1256 l 257
 303 1256 l 258
 367 1256 411 1299 411 1344 c 256
 411 1389 367 1434 303 1434 c 256
 235 1434 195 1389 195 1340 c 257
EndSplineSet
EndChar

StartChar: uni00B9
Encoding: 185 185 204
Width: 457
VWidth: 0
GlyphClass: 2
Flags: HW
LayerCount: 2
Fore
SplineSet
84 1292 m 257
 84 1382 l 257
 234 1382 l 257
 235 1484 l 257
 325 1484 l 257
 325 848 l 257
 235 848 l 257
 235 1292 l 257
 84 1292 l 257
EndSplineSet
EndChar

StartChar: uni0237
Encoding: 567 567 205
Width: 450
VWidth: 0
GlyphClass: 2
Flags: HW
LayerCount: 2
Fore
SplineSet
125 -155 m 258
 125 1090 l 257
 325 1090 l 257
 325 -155 l 258
 325 -294 208 -420 48 -420 c 257
 -5 -420 -55 -406 -96 -384 c 257
 -96 -240 l 257
 44 -240 l 258
 88 -240 125 -207 125 -155 c 258
EndSplineSet
EndChar

StartChar: uni060C
Encoding: 1548 1548 206
Width: 550
VWidth: 0
GlyphClass: 2
Flags: HW
LayerCount: 2
Fore
SplineSet
272 534 m 257
 339 488 l 257
 295 428 244 309 244 234 c 257
 322 234 400 201 400 120 c 256
 400 65 370 0 280 0 c 256
 194 0 150 61 150 151 c 256
 150 311 204 442 272 534 c 257
EndSplineSet
EndChar

StartChar: uni0615
Encoding: 1557 1557 207
Width: 0
VWidth: 0
GlyphClass: 4
Flags: H
AnchorPoint: "Anchor1" 0 1234 mark 0
AnchorPoint: "Anchor1" 0 1573 basemark 0
AnchorPoint: "Anchor5" 0 1234 mark 0
AnchorPoint: "Anchor4" 0 1234 mark 0
AnchorPoint: "Anchor-5" 0 1296 mark 0
AnchorPoint: "Anchor-4" 0 1296 mark 0
AnchorPoint: "Anchor-1" 0 1296 mark 0
AnchorPoint: "Anchor-1" 0 1573 basechar 0
LayerCount: 2
Fore
SplineSet
276 1716 m 256
 276 1538 59 1531 -152 1529 c 258
 -276 1529 l 257
 -276 1619 l 257
 -166 1619 l 257
 -166 2042 l 257
 -76 2042 l 257
 -76 1758 l 257
 -14 1828 55 1865 123 1865 c 256
 206 1865 276 1807 276 1716 c 256
-64 1621 m 257
 128 1628 186 1657 186 1716 c 256
 186 1756 165 1775 123 1775 c 256
 75 1775 0 1733 -64 1621 c 257
EndSplineSet
EndChar

StartChar: uni061F
Encoding: 1567 1567 209
Width: 1067
VWidth: 0
GlyphClass: 2
Flags: HW
LayerCount: 2
Fore
SplineSet
654 416 m 257
 454 416 l 257
 454 590 367 656 277 720 c 256
 189 782 100 856 100 1019 c 256
 100 1255 258 1472 539 1472 c 256
 823 1472 967 1276 967 1060 c 256
 967 1026 963 984 958 948 c 257
 759 972 l 257
 765 1001 767 1027 767 1060 c 256
 767 1208 696 1302 539 1302 c 256
 389 1302 300 1189 300 1045 c 256
 300 927 364 871 444 809 c 256
 542 733 654 636 654 416 c 257
EndSplineSet
Refer: 165 46 N -1 0 0 1 803 0 2
EndChar

StartChar: uni0660
Encoding: 1632 1632 261
Width: 845
VWidth: 0
GlyphClass: 2
Flags: HW
LayerCount: 2
Fore
SplineSet
422 646 m 256
 325 646 250 571 250 474 c 256
 250 377 326 300 422 300 c 256
 518 300 595 377 595 474 c 256
 595 570 519 646 422 646 c 256
422 796 m 256
 600 796 745 654 745 474 c 256
 745 296 602 150 422 150 c 256
 242 150 100 296 100 474 c 256
 100 652 244 796 422 796 c 256
EndSplineSet
PairPos2: "kernHorizontalKerninginArabiclookup3 subtable" uni0661 dx=50 dy=0 dh=50 dv=0 dx=0 dy=0 dh=0 dv=0
PairPos2: "kernHorizontalKerninginArabiclookup3 subtable" uni0667 dx=-100 dy=0 dh=-100 dv=0 dx=0 dy=0 dh=0 dv=0
PairPos2: "kernHorizontalKerninginArabiclookup3 subtable" uni0666 dx=-25 dy=0 dh=-25 dv=0 dx=0 dy=0 dh=0 dv=0
PairPos2: "kernHorizontalKerninginArabiclookup3 subtable" uni0662 dx=-125 dy=0 dh=-125 dv=0 dx=0 dy=0 dh=0 dv=0
EndChar

StartChar: uni0661
Encoding: 1633 1633 262
Width: 618
VWidth: 0
GlyphClass: 2
Flags: HW
LayerCount: 2
Fore
SplineSet
518 -2 m 257
 318 -2 l 257
 318 485 246 807 94 1237 c 257
 282 1303 l 257
 440 857 518 506 518 -2 c 257
EndSplineSet
PairPos2: "kernHorizontalKerninginArabiclookup3 subtable" uni0665 dx=-50 dy=0 dh=-50 dv=0 dx=0 dy=0 dh=0 dv=0
PairPos2: "kernHorizontalKerninginArabiclookup3 subtable" uni0660 dx=-50 dy=0 dh=-50 dv=0 dx=0 dy=0 dh=0 dv=0
EndChar

StartChar: uni0662
Encoding: 1634 1634 263
Width: 1046
VWidth: 0
GlyphClass: 2
Flags: HW
LayerCount: 2
Fore
SplineSet
564 848 m 256
 728 848 746 1016 746 1303 c 257
 946 1303 l 257
 946 1051 941 648 577 648 c 256
 532 648 498 656 458 679 c 257
 498 461 518 250 518 0 c 257
 318 0 l 257
 318 497 214 850 94 1244 c 257
 285 1303 l 257
 369 1023 422 848 564 848 c 256
EndSplineSet
EndChar

StartChar: uni0663
Encoding: 1635 1635 264
Width: 1383
VWidth: 0
GlyphClass: 2
Flags: HW
LayerCount: 2
Fore
SplineSet
850 1264 m 257
 844 1185 840 1129 840 1058 c 256
 840 926 848 854 954 854 c 256
 1058 854 1082 952 1082 1086 c 256
 1082 1148 1073 1212 1060 1276 c 257
 1256 1316 l 257
 1272 1240 1282 1171 1282 1086 c 256
 1282 860 1186 654 948 654 c 256
 832 654 779 705 730 780 c 257
 686 704 634 654 538 654 c 256
 507 654 484 659 459 672 c 257
 499 455 518 248 518 0 c 257
 318 0 l 257
 318 498 216 858 94 1244 c 257
 285 1302 l 257
 381 957 417 854 520 854 c 256
 642 854 658 1005 671 1272 c 257
 850 1264 l 257
EndSplineSet
PairPos2: "kernHorizontalKerninginArabiclookup3 subtable" uni0668 dx=-50 dy=0 dh=-50 dv=0 dx=0 dy=0 dh=0 dv=0
EndChar

StartChar: uni0664
Encoding: 1636 1636 265
Width: 997
VWidth: 0
GlyphClass: 2
Flags: HW
LayerCount: 2
Fore
SplineSet
286 660 m 257
 212 708 161 828 161 940 c 256
 161 1233 430 1303 702 1303 c 257
 702 1103 l 257
 467 1103 361 1047 361 934 c 256
 361 824 474 767 708 767 c 257
 708 567 l 257
 468 567 300 478 300 332 c 256
 300 220 401 198 533 198 c 258
 834 198 l 257
 834 -2 l 257
 509 -2 l 258
 269 -2 100 93 100 300 c 256
 100 446 174 590 286 660 c 257
EndSplineSet
PairPos2: "kernHorizontalKerninginArabiclookup3 subtable" uni0666 dx=50 dy=0 dh=50 dv=0 dx=0 dy=0 dh=0 dv=0
EndChar

StartChar: uni0665
Encoding: 1637 1637 266
Width: 1196
VWidth: 0
GlyphClass: 2
Flags: HW
LayerCount: 2
Fore
SplineSet
497 1303 m 257
 755 1089 1096 774 1096 392 c 256
 1096 94 877 -22 601 -22 c 256
 335 -22 100 93 100 390 c 256
 100 640 233 846 460 1070 c 257
 430 1098 400 1125 370 1150 c 257
 497 1303 l 257
602 930 m 257
 394 726 300 568 300 390 c 256
 300 232 391 178 601 178 c 256
 817 178 896 224 896 392 c 256
 896 568 767 751 602 930 c 257
EndSplineSet
PairPos2: "kernHorizontalKerninginArabiclookup3 subtable" uni0661 dx=50 dy=0 dh=50 dv=0 dx=0 dy=0 dh=0 dv=0
PairPos2: "kernHorizontalKerninginArabiclookup3 subtable" uni0667 dx=-100 dy=0 dh=-100 dv=0 dx=0 dy=0 dh=0 dv=0
EndChar

StartChar: uni0666
Encoding: 1638 1638 267
Width: 1168
VWidth: 0
GlyphClass: 2
Flags: HW
LayerCount: 2
Fore
SplineSet
142 1107 m 257
 185 1303 l 257
 314 1274 468 1255 618 1255 c 256
 706 1255 792 1262 862 1274 c 257
 960 1186 l 257
 956 1090 954 998 954 905 c 256
 954 529 988 378 1074 30 c 257
 880 -18 l 257
 792 338 754 516 754 905 c 256
 754 957 754 1007 756 1061 c 257
 712 1057 666 1055 618 1055 c 256
 458 1055 288 1076 142 1107 c 257
EndSplineSet
PairPos2: "kernHorizontalKerninginArabiclookup3 subtable" uni0664 dx=-50 dy=0 dh=-50 dv=0 dx=0 dy=0 dh=0 dv=0
PairPos2: "kernHorizontalKerninginArabiclookup3 subtable" uni0665 dx=-175 dy=0 dh=-175 dv=0 dx=0 dy=0 dh=0 dv=0
PairPos2: "kernHorizontalKerninginArabiclookup3 subtable" uni0660 dx=-200 dy=0 dh=-200 dv=0 dx=0 dy=0 dh=0 dv=0
PairPos2: "kernHorizontalKerninginArabiclookup3 subtable" uni066B dx=-150 dy=0 dh=-150 dv=0 dx=0 dy=0 dh=0 dv=0
PairPos2: "kernHorizontalKerninginArabiclookup3 subtable" uni0668 dx=-200 dy=0 dh=-200 dv=0 dx=0 dy=0 dh=0 dv=0
EndChar

StartChar: uni0667
Encoding: 1639 1639 268
Width: 1315
VWidth: 0
GlyphClass: 2
Flags: HW
LayerCount: 2
Fore
SplineSet
1059 1304 m 257
 1217 1180 l 257
 971 862 831 606 747 0 c 257
 569 0 l 257
 489 586 355 846 98 1180 c 257
 257 1303 l 257
 441 1063 564 856 658 480 c 257
 751 856 875 1064 1059 1304 c 257
EndSplineSet
PairPos2: "kernHorizontalKerninginArabiclookup3 subtable" uni0660 dx=-100 dy=0 dh=-100 dv=0 dx=0 dy=0 dh=0 dv=0
PairPos2: "kernHorizontalKerninginArabiclookup3 subtable" uni0665 dx=-100 dy=0 dh=-100 dv=0 dx=0 dy=0 dh=0 dv=0
PairPos2: "kernHorizontalKerninginArabiclookup3 subtable" uni0668 dx=-150 dy=0 dh=-150 dv=0 dx=0 dy=0 dh=0 dv=0
PairPos2: "kernHorizontalKerninginArabiclookup3 subtable" uni066B dx=-125 dy=0 dh=-125 dv=0 dx=0 dy=0 dh=0 dv=0
EndChar

StartChar: uni0668
Encoding: 1640 1640 269
Width: 1315
VWidth: 0
GlyphClass: 2
Flags: HW
LayerCount: 2
Fore
SplineSet
256 -20 m 257
 98 104 l 257
 344 422 484 677 568 1283 c 257
 746 1283 l 257
 826 697 960 437 1217 103 c 257
 1058 -20 l 257
 874 220 751 428 657 804 c 257
 564 428 440 220 256 -20 c 257
EndSplineSet
PairPos2: "kernHorizontalKerninginArabiclookup3 subtable" uni0663 dx=-200 dy=0 dh=-200 dv=0 dx=0 dy=0 dh=0 dv=0
PairPos2: "kernHorizontalKerninginArabiclookup3 subtable" uni0662 dx=-175 dy=0 dh=-175 dv=0 dx=0 dy=0 dh=0 dv=0
PairPos2: "kernHorizontalKerninginArabiclookup3 subtable" uni0667 dx=-150 dy=0 dh=-150 dv=0 dx=0 dy=0 dh=0 dv=0
EndChar

StartChar: uni0669
Encoding: 1641 1641 270
Width: 1035
VWidth: 0
GlyphClass: 2
Flags: HW
LayerCount: 2
Fore
SplineSet
634 539 m 257
 592 531 547 526 501 526 c 256
 311 526 100 606 100 852 c 256
 100 1058 219 1303 467 1303 c 256
 752 1303 828 1045 828 825 c 256
 828 705 830 588 842 500 c 257
 854 280 888 183 942 60 c 257
 758 -20 l 257
 684 148 645 263 634 539 c 257
628 742 m 257
 628 825 l 258
 628 1029 580 1103 467 1103 c 256
 383 1103 300 1008 300 852 c 256
 300 762 357 726 501 726 c 256
 547 726 587 732 628 742 c 257
EndSplineSet
PairPos2: "kernHorizontalKerninginArabiclookup3 subtable" uni066B dx=200 dy=0 dh=200 dv=0 dx=0 dy=0 dh=0 dv=0
PairPos2: "kernHorizontalKerninginArabiclookup3 subtable" uni0668 dx=-150 dy=0 dh=-150 dv=0 dx=0 dy=0 dh=0 dv=0
PairPos2: "kernHorizontalKerninginArabiclookup3 subtable" uni0665 dx=-50 dy=0 dh=-50 dv=0 dx=0 dy=0 dh=0 dv=0
EndChar

StartChar: uni066B
Encoding: 1643 1643 272
Width: 787
VWidth: 0
GlyphClass: 2
Flags: HW
LayerCount: 2
Fore
SplineSet
258 -303 m 257
 72 -231 l 257
 538 960 l 257
 724 888 l 257
 258 -303 l 257
EndSplineSet
PairPos2: "kernHorizontalKerninginArabiclookup3 subtable" uni0663 dx=-150 dy=0 dh=-150 dv=0 dx=0 dy=0 dh=0 dv=0
PairPos2: "kernHorizontalKerninginArabiclookup3 subtable" uni0662 dx=-100 dy=0 dh=-100 dv=0 dx=0 dy=0 dh=0 dv=0
PairPos2: "kernHorizontalKerninginArabiclookup3 subtable" uni0667 dx=-100 dy=0 dh=-100 dv=0 dx=0 dy=0 dh=0 dv=0
PairPos2: "kernHorizontalKerninginArabiclookup3 subtable" uni06F7 dx=-100 dy=0 dh=-100 dv=0 dx=0 dy=0 dh=0 dv=0
PairPos2: "kernHorizontalKerninginArabiclookup3 subtable" uni06F0 dx=-50 dy=0 dh=-50 dv=0 dx=0 dy=0 dh=0 dv=0
PairPos2: "kernHorizontalKerninginArabiclookup3 subtable" uni06F3 dx=-75 dy=0 dh=-75 dv=0 dx=0 dy=0 dh=0 dv=0
PairPos2: "kernHorizontalKerninginArabiclookup3 subtable" uni06F2 dx=-100 dy=0 dh=-100 dv=0 dx=0 dy=0 dh=0 dv=0
PairPos2: "kernHorizontalKerninginArabiclookup3 subtable" uni066B dx=-50 dy=0 dh=-50 dv=0 dx=0 dy=0 dh=0 dv=0
EndChar

StartChar: uni066C
Encoding: 1644 1644 273
Width: 587
VWidth: 0
GlyphClass: 2
Flags: HW
LayerCount: 2
Fore
SplineSet
179 784 m 257
 121 852 l 257
 189 921 274 1048 300 1124 c 257
 234 1124 138 1180 138 1278 c 256
 138 1361 200 1434 284 1434 c 256
 370 1434 450 1379 450 1246 c 256
 450 1106 289 886 179 784 c 257
EndSplineSet
EndChar

StartChar: uni066D
Encoding: 1645 1645 274
Width: 910
VWidth: 0
GlyphClass: 2
Flags: HW
LayerCount: 2
Fore
SplineSet
526 631 m 257
 384 631 l 257
 384 928 l 257
 128 780 l 257
 56 903 l 257
 312 1052 l 257
 56 1200 l 257
 128 1323 l 257
 384 1176 l 257
 384 1471 l 257
 526 1471 l 257
 526 1176 l 257
 782 1323 l 257
 854 1200 l 257
 598 1052 l 257
 854 903 l 257
 782 780 l 257
 526 928 l 257
 526 631 l 257
EndSplineSet
EndChar

StartChar: uni06F4
Encoding: 1780 1780 300
Width: 1179
VWidth: 0
GlyphClass: 2
Flags: HW
LayerCount: 2
Fore
SplineSet
467 629 m 257
 503 403 518 230 518 0 c 257
 318 0 l 257
 318 480 221 844 100 1242 c 257
 290 1303 l 257
 322 1227 365 1105 389 1015 c 257
 427 1205 576 1318 752 1318 c 256
 824 1318 914 1288 986 1252 c 257
 904 1071 l 257
 852 1103 800 1118 736 1118 c 256
 616 1118 511 1028 511 862 c 256
 511 760 624 732 750 732 c 256
 830 732 911 745 983 765 c 257
 1009 570 l 257
 931 546 853 536 781 536 c 256
 653 536 553 561 467 629 c 257
EndSplineSet
PairPos2: "kernHorizontalKerninginArabiclookup3 subtable" uni06F0 dx=-25 dy=0 dh=-25 dv=0 dx=0 dy=0 dh=0 dv=0
PairPos2: "kernHorizontalKerninginArabiclookup3 subtable" uni06F8 dx=-50 dy=0 dh=-50 dv=0 dx=0 dy=0 dh=0 dv=0
EndChar

StartChar: uni06F5
Encoding: 1781 1781 301
Width: 1276
VWidth: 0
GlyphClass: 2
Flags: HW
LayerCount: 2
Fore
SplineSet
646 62 m 257
 588 8 512 -20 434 -20 c 256
 256 -20 100 121 100 371 c 256
 100 583 211 829 491 1072 c 257
 463 1095 432 1117 400 1140 c 257
 515 1303 l 257
 581 1257 646 1208 706 1156 c 256
 993 905 1176 627 1176 356 c 256
 1176 116 1024 -20 852 -20 c 256
 776 -20 700 10 646 62 c 257
568 342 m 257
 728 342 l 257
 728 285 l 258
 728 217 776 180 844 180 c 256
 905 180 976 210 976 356 c 256
 976 521 860 727 644 940 c 257
 385 726 300 520 300 371 c 256
 300 211 380 180 444 180 c 256
 517 180 568 221 568 285 c 258
 568 342 l 257
EndSplineSet
PairPos2: "kernHorizontalKerninginArabiclookup3 subtable" uni06F1 dx=50 dy=0 dh=50 dv=0 dx=0 dy=0 dh=0 dv=0
PairPos2: "kernHorizontalKerninginArabiclookup3 subtable" uni06F2 dx=-25 dy=0 dh=-25 dv=0 dx=0 dy=0 dh=0 dv=0
PairPos2: "kernHorizontalKerninginArabiclookup3 subtable" uni06F3 dx=-25 dy=0 dh=-25 dv=0 dx=0 dy=0 dh=0 dv=0
PairPos2: "kernHorizontalKerninginArabiclookup3 subtable" uni06F7 dx=-100 dy=0 dh=-100 dv=0 dx=0 dy=0 dh=0 dv=0
PairPos2: "kernHorizontalKerninginArabiclookup3 subtable" uni06F9 dx=-75 dy=0 dh=-75 dv=0 dx=0 dy=0 dh=0 dv=0
EndChar

StartChar: uni06F6
Encoding: 1782 1782 302
Width: 1034
VWidth: 0
GlyphClass: 2
Flags: HW
LayerCount: 2
Fore
SplineSet
565 712 m 256
 683 712 772 758 850 810 c 257
 981 653 l 257
 695 458 443 238 268 -20 c 257
 94 79 l 257
 217 263 338 386 490 526 c 257
 304 542 106 651 106 881 c 256
 106 1122 283 1303 514 1303 c 256
 664 1303 761 1232 838 1160 c 257
 701 1014 l 257
 656 1062 598 1103 514 1103 c 256
 398 1103 306 1011 306 881 c 256
 306 767 425 712 565 712 c 256
EndSplineSet
EndChar

StartChar: uniE000
Encoding: 57344 57344 306
Width: 120
VWidth: 0
GlyphClass: 2
Flags: HW
LayerCount: 2
Fore
SplineSet
0 198 m 258
 120 198 l 257
 120 -2 l 257
 0 -2 l 258
 -56 -2 -100 42 -100 98 c 256
 -100 154 -56 198 0 198 c 258
EndSplineSet
EndChar

StartChar: uniE001
Encoding: 57345 57345 307
Width: 320
VWidth: 0
GlyphClass: 2
Flags: HW
LayerCount: 2
Fore
SplineSet
0 198 m 258
 320 198 l 257
 320 -2 l 257
 0 -2 l 258
 -56 -2 -100 42 -100 98 c 256
 -100 154 -56 198 0 198 c 258
EndSplineSet
EndChar

StartChar: uniE002
Encoding: 57346 57346 308
Width: 450
VWidth: 0
GlyphClass: 2
Flags: HW
LayerCount: 2
Fore
SplineSet
0 198 m 258
 450 198 l 257
 450 -2 l 257
 0 -2 l 258
 -56 -2 -100 42 -100 98 c 256
 -100 154 -56 198 0 198 c 258
EndSplineSet
EndChar

StartChar: uniE003
Encoding: 57347 57347 309
Width: 1762
VWidth: 0
GlyphClass: 2
Flags: HW
LayerCount: 2
Fore
SplineSet
1574 1496 m 257
 1672 1394 l 257
 188 -38 l 257
 90 64 l 257
 1574 1496 l 257
EndSplineSet
EndChar

StartChar: uniE004
Encoding: 57348 57348 310
Width: 1088
VWidth: 0
GlyphClass: 2
Flags: HW
LayerCount: 2
Fore
SplineSet
197 -32 m 257
 84 56 l 257
 891 1092 l 257
 1004 1004 l 257
 197 -32 l 257
EndSplineSet
EndChar

StartChar: uniE005
Encoding: 57349 57349 311
Width: 1462
VWidth: 0
GlyphClass: 2
Flags: HW
LayerCount: 2
Fore
SplineSet
1376 28 m 257
 1267 -62 l 257
 779 520 l 257
 888 612 l 257
 1376 28 l 257
EndSplineSet
EndChar

StartChar: uniE006
Encoding: 57350 57350 312
Width: 1146
VWidth: 0
GlyphClass: 2
Flags: HW
LayerCount: 2
Fore
SplineSet
221 102 m 257
 221 245 l 257
 925 245 l 257
 925 102 l 257
 221 102 l 257
221 428 m 257
 221 571 l 257
 925 571 l 257
 925 428 l 257
 221 428 l 257
EndSplineSet
EndChar

StartChar: uniE007
Encoding: 57351 57351 313
Width: 869
VWidth: 0
GlyphClass: 2
Flags: HW
LayerCount: 2
Fore
SplineSet
580 1576 m 257
 550 1590 506 1606 472 1606 c 256
 388 1606 340 1549 340 1504 c 256
 340 1443 378 1428 448 1406 c 256
 508 1388 602 1356 602 1250 c 256
 602 1126 459 1066 344 1066 c 256
 276 1066 216 1079 166 1103 c 257
 205 1184 l 257
 241 1166 286 1156 344 1156 c 256
 446 1156 512 1203 512 1246 c 256
 512 1282 488 1298 420 1319 c 256
 354 1339 250 1379 250 1506 c 256
 250 1611 350 1696 472 1696 c 256
 528 1696 574 1677 615 1659 c 257
 580 1576 l 257
EndSplineSet
EndChar

StartChar: uniE008
Encoding: 57352 57352 314
Width: 1454
VWidth: 0
GlyphClass: 2
Flags: HW
LayerCount: 2
Fore
SplineSet
520 1160 m 256
 520 1235 464 1297 392 1297 c 256
 320 1297 263 1234 263 1160 c 256
 263 1086 320 1028 392 1028 c 256
 463 1028 520 1086 520 1160 c 256
654 1160 m 256
 654 1015 540 896 392 896 c 256
 245 896 128 1015 128 1160 c 256
 128 1299 238 1431 392 1431 c 256
 547 1431 654 1298 654 1160 c 256
EndSplineSet
EndChar

StartChar: uniE009
Encoding: 57353 57353 315
Width: 1146
VWidth: 0
GlyphClass: 2
Flags: HW
LayerCount: 2
Fore
SplineSet
502 1650 m 257
 644 1650 l 257
 644 -197 l 257
 502 -197 l 257
 502 1650 l 257
EndSplineSet
EndChar

StartChar: uniE00A
Encoding: 57354 57354 316
Width: 1214
VWidth: 0
GlyphClass: 2
Flags: HW
LayerCount: 2
Fore
SplineSet
85 470 m 257
 85 613 l 257
 720 613 l 257
 720 470 l 257
 85 470 l 257
EndSplineSet
EndChar

StartChar: uniE00B
Encoding: 57355 57355 317
Width: 1108
VWidth: 0
GlyphClass: 2
Flags: HW
LayerCount: 2
Fore
SplineSet
890 614 m 257
 812 490 l 257
 760 502 699 509 635 509 c 256
 451 509 295 440 295 303 c 256
 295 215 352 154 474 154 c 256
 609 154 736 246 736 386 c 257
 876 386 l 257
 876 120 643 -15 438 -15 c 256
 240 -15 101 106 101 300 c 256
 101 578 406 649 635 649 c 256
 729 649 814 634 890 614 c 257
EndSplineSet
EndChar

StartChar: uniE00C
Encoding: 57356 57356 318
Width: 1536
VWidth: 0
GlyphClass: 2
Flags: HW
LayerCount: 2
Fore
SplineSet
818 726 m 257
 818 910 905 1112 1137 1112 c 256
 1409 1112 1456 877 1456 726 c 258
 1456 -12 l 257
 1256 -12 l 257
 1256 726 l 258
 1256 838 1188 932 1062 932 c 256
 941 932 869 828 868 726 c 257
 818 726 l 257
EndSplineSet
EndChar

StartChar: uniE00D
Encoding: 57357 57357 319
Width: 1068
VWidth: 0
GlyphClass: 2
Flags: HW
LayerCount: 2
Fore
SplineSet
240 656 m 257
 240 922 358 1110 614 1110 c 256
 899 1110 978 880 978 692 c 258
 978 0 l 257
 778 0 l 257
 778 666 l 258
 778 836 687 930 539 930 c 256
 385 930 300 832 300 656 c 257
 240 656 l 257
EndSplineSet
EndChar

StartChar: uniE00E
Encoding: 57358 57358 320
Width: 754
VWidth: 0
GlyphClass: 2
Flags: HW
LayerCount: 2
Fore
SplineSet
300 530 m 257
 160 530 l 257
 160 790 274 1092 611 1092 c 258
 679 1092 l 257
 679 912 l 257
 581 912 l 258
 391 912 300 750 300 530 c 257
EndSplineSet
EndChar

StartChar: uniE00F
Encoding: 57359 57359 321
Width: 1158
VWidth: 0
GlyphClass: 2
Flags: HW
LayerCount: 2
Fore
SplineSet
674 1110 m 256
 997 1110 1118 810 1118 544 c 256
 1118 278 996 -20 674 -20 c 256
 356 -20 220 263 220 544 c 256
 220 824 356 1110 674 1110 c 256
619 932 m 256
 429 932 320 772 320 544 c 256
 320 316 429 157 619 157 c 256
 809 157 918 316 918 544 c 256
 918 772 809 932 619 932 c 256
EndSplineSet
EndChar

StartChar: uniE020
Encoding: 57376 57376 331
Width: 878
VWidth: 0
GlyphClass: 2
Flags: HW
LayerCount: 2
Fore
SplineSet
694 652 m 257
 586 561 l 257
 554 599 505 634 431 634 c 256
 346 634 256 559 256 440 c 256
 256 346 334 303 474 303 c 257
 734 409 l 257
 788 278 l 257
 146 12 l 257
 91 144 l 257
 272 218 l 257
 182 252 112 318 112 434 c 256
 112 640 266 776 431 776 c 256
 555 776 642 714 694 652 c 257
EndSplineSet
EndChar

StartChar: uniE021
Encoding: 57377 57377 332
Width: 560
VWidth: 0
GlyphClass: 2
Flags: HW
LayerCount: 2
Fore
SplineSet
562 1578 m 257
 668 1528 l 257
 606 1387 531 1328 419 1328 c 256
 371 1328 314 1342 246 1366 c 256
 199 1383 164 1394 134 1394 c 256
 77 1394 41 1349 -7 1282 c 257
 -108 1343 l 257
 -36 1481 56 1545 151 1545 c 256
 187 1545 213 1541 264 1522 c 256
 357 1488 398 1474 434 1474 c 256
 484 1474 522 1502 562 1578 c 257
380 1160 m 257
 380 12 l 257
 180 12 l 257
 180 1160 l 257
 380 1160 l 257
EndSplineSet
EndChar

StartChar: uniE022
Encoding: 57378 57378 333
Width: 500
VWidth: 0
GlyphClass: 2
Flags: HW
LayerCount: 2
Fore
SplineSet
350 12 m 257
 150 12 l 257
 150 1271 l 257
 350 1271 l 257
 350 12 l 257
EndSplineSet
EndChar

StartChar: uniE023
Encoding: 57379 57379 334
Width: 1360
VWidth: 0
GlyphClass: 2
Flags: HW
LayerCount: 2
Fore
SplineSet
1232 -418 m 257
 1308 -603 l 257
 1151 -669 984 -714 750 -714 c 256
 409 -714 76 -580 76 -202 c 256
 76 230 521 418 965 552 c 257
 597 686 l 258
 561 698 531 702 507 702 c 256
 395 702 346 619 324 433 c 257
 124 455 l 257
 150 697 249 902 507 902 c 256
 555 902 607 895 662 875 c 258
 1257 649 l 257
 1257 436 l 257
 691 289 276 116 276 -202 c 256
 276 -424 489 -511 763 -511 c 256
 951 -511 1097 -474 1232 -418 c 257
EndSplineSet
EndChar

StartChar: uniE024
Encoding: 57380 57380 335
Width: 936
VWidth: 0
GlyphClass: 2
Flags: HW
LayerCount: 2
Fore
SplineSet
858 350 m 256
 858 74 572 0 352 0 c 256
 258 0 160 15 70 39 c 257
 119 230 l 257
 194 212 271 200 356 200 c 256
 518 200 660 247 660 362 c 256
 660 484 558 640 349 816 c 257
 477 968 l 257
 707 774 858 578 858 350 c 256
EndSplineSet
EndChar

StartChar: uniE025
Encoding: 57381 57381 336
Width: 834
VWidth: 0
GlyphClass: 2
Flags: HW
LayerCount: 2
Fore
SplineSet
454 580 m 257
 640 655 l 257
 708 485 756 311 756 154 c 256
 756 -166 516 -396 160 -525 c 257
 92 -337 l 257
 386 -229 556 -77 556 154 c 256
 556 273 514 430 454 580 c 257
EndSplineSet
EndChar

StartChar: uniE026
Encoding: 57382 57382 337
Width: 2378
VWidth: 0
GlyphClass: 2
Flags: HW
LayerCount: 2
Fore
SplineSet
1963 -2 m 256
 1871 -2 1773 35 1709 115 c 257
 1652 41 1573 -2 1473 -2 c 256
 1425 -2 1375 9 1330 42 c 257
 1299 -330 1014 -504 684 -504 c 256
 362 -504 78 -335 78 36 c 256
 78 208 148 422 248 598 c 257
 422 504 l 257
 331 344 278 154 278 36 c 256
 278 -178 413 -304 684 -304 c 256
 978 -304 1140 -154 1140 90 c 256
 1140 220 1091 360 998 588 c 257
 1186 660 l 257
 1320 276 1355 200 1473 200 c 256
 1553 200 1605 256 1621 386 c 258
 1648 614 l 257
 1836 596 l 257
 1818 433 l 258
 1816 409 1815 387 1815 366 c 256
 1815 248 1872 200 1960 200 c 256
 2064 200 2100 280 2100 402 c 256
 2100 510 2067 645 2042 724 c 257
 2234 784 l 257
 2270 670 2300 538 2300 410 c 256
 2300 224 2221 -2 1963 -2 c 256
EndSplineSet
EndChar

StartChar: uniE027
Encoding: 57383 57383 338
Width: 2322
VWidth: 0
GlyphClass: 2
Flags: HW
LayerCount: 2
Fore
SplineSet
1671 -2 m 256
 1559 -2 1435 22 1334 58 c 257
 1300 -324 1026 -504 684 -504 c 256
 362 -504 78 -335 78 36 c 256
 78 208 148 422 248 598 c 257
 422 504 l 257
 331 344 278 154 278 36 c 256
 278 -178 413 -304 684 -304 c 256
 978 -304 1140 -154 1140 90 c 256
 1140 220 1091 360 998 588 c 257
 1186 660 l 257
 1232 560 1268 457 1298 353 c 257
 1461 628 1673 748 1864 748 c 256
 2066 748 2243 609 2243 390 c 256
 2243 94 1920 -2 1671 -2 c 256
1454 229 m 257
 1522 209 1597 198 1671 198 c 256
 1911 198 2043 285 2043 390 c 256
 2043 482 1974 548 1864 548 c 256
 1749 548 1593 475 1454 229 c 257
EndSplineSet
EndChar

StartChar: uniE028
Encoding: 57384 57384 339
Width: 1515
VWidth: 0
GlyphClass: 2
Flags: HW
LayerCount: 2
Fore
SplineSet
601 218 m 257
 601 200 l 257
 1155 204 1215 322 1215 441 c 256
 1215 527 1152 588 1050 588 c 256
 940 588 726 493 601 218 c 257
378 200 m 257
 378 1271 l 257
 578 1271 l 257
 578 500 l 257
 726 700 917 788 1073 788 c 256
 1235 788 1415 672 1415 458 c 256
 1415 157 1170 0 478 0 c 258
 80 0 l 257
 80 200 l 257
 378 200 l 257
EndSplineSet
EndChar

StartChar: uniE029
Encoding: 57385 57385 340
Width: 1299
VWidth: 0
GlyphClass: 2
Flags: HW
LayerCount: 2
Fore
SplineSet
988 969 m 257
 836 840 l 257
 788 904 713 970 596 970 c 256
 463 970 354 866 354 710 c 256
 354 578 499 526 696 526 c 256
 796 526 901 542 993 558 c 257
 1023 353 l 257
 628 318 281 185 281 -141 c 256
 281 -371 502 -488 766 -488 c 256
 902 -488 1041 -460 1144 -416 c 257
 1224 -600 l 257
 1094 -660 931 -695 769 -695 c 256
 417 -695 81 -523 81 -154 c 256
 81 102 228 274 412 378 c 257
 278 424 154 522 154 692 c 256
 154 970 360 1170 596 1170 c 256
 790 1170 905 1067 988 969 c 257
EndSplineSet
EndChar

StartChar: uniE02A
Encoding: 57386 57386 341
Width: 811
VWidth: 0
GlyphClass: 2
Flags: HW
LayerCount: 2
Fore
SplineSet
0 200 m 258
 811 200 l 257
 811 0 l 257
 0 0 l 258
 -56 0 -100 44 -100 100 c 256
 -100 156 -56 200 0 200 c 258
EndSplineSet
EndChar

StartChar: uniE02B
Encoding: 57387 57387 342
Width: 1666
VWidth: 0
GlyphClass: 2
Flags: HW
LayerCount: 2
Fore
SplineSet
1265 1284 m 257
 1465 1284 l 257
 1465 542 l 258
 1465 359 1431 230 1348 144 c 256
 1249 40 1080 0 786 0 c 256
 462 0 78 42 78 418 c 256
 78 512 95 614 115 696 c 257
 310 650 l 257
 294 582 278 484 278 418 c 256
 278 250 441 200 778 200 c 256
 1035 200 1147 215 1205 278 c 256
 1252 329 1265 412 1265 542 c 258
 1265 1284 l 257
EndSplineSet
EndChar

StartChar: uniE02C
Encoding: 57388 57388 343
Width: 1268
VWidth: 0
GlyphClass: 2
Flags: HW
LayerCount: 2
Fore
SplineSet
957 1271 m 257
 1157 1271 l 257
 1157 70 l 258
 1157 -305 946 -504 602 -504 c 256
 292 -504 78 -318 78 -18 c 256
 78 102 108 239 170 391 c 257
 348 317 l 257
 296 183 277 65 277 -24 c 256
 277 -202 385 -304 618 -304 c 256
 850 -304 957 -204 957 70 c 258
 957 1271 l 257
EndSplineSet
EndChar

StartChar: uniE02D
Encoding: 57389 57389 344
Width: 1199
VWidth: 0
GlyphClass: 2
Flags: HW
LayerCount: 2
Fore
SplineSet
352 278 m 257
 378 463 474 744 760 744 c 256
 996 744 1119 524 1119 326 c 256
 1119 93 953 0 793 0 c 256
 687 0 584 28 504 59 c 256
 458 77 439 84 401 84 c 256
 331 84 278 36 278 -76 c 258
 278 -785 l 257
 78 -785 l 257
 78 -76 l 258
 78 98 181 253 352 278 c 257
550 255 m 257
 630 231 714 200 793 200 c 256
 877 200 919 224 919 320 c 256
 919 457 847 544 760 544 c 256
 642 544 572 414 550 255 c 257
EndSplineSet
EndChar

StartChar: uniE02E
Encoding: 57390 57390 345
Width: 869
VWidth: 0
GlyphClass: 2
Flags: HW
LayerCount: 2
Fore
SplineSet
435 200 m 256
 537 200 588 245 588 333 c 256
 588 423 528 531 435 627 c 257
 343 531 282 421 282 333 c 256
 282 246 333 200 435 200 c 256
435 0 m 256
 233 0 91 138 91 330 c 256
 91 570 274 756 435 896 c 257
 597 756 778 569 778 330 c 256
 778 138 637 0 435 0 c 256
EndSplineSet
EndChar

StartChar: uniE02F
Encoding: 57391 57391 346
Width: 928
VWidth: 0
GlyphClass: 2
Flags: HW
LayerCount: 2
Fore
SplineSet
622 14 m 257
 580 4 536 -2 488 -2 c 256
 302 -2 112 87 112 326 c 256
 112 530 246 774 470 774 c 256
 821 774 850 287 850 122 c 256
 850 -226 582 -411 160 -523 c 257
 96 -334 l 257
 404 -256 579 -131 622 14 c 257
645 220 m 257
 627 418 570 574 470 574 c 256
 394 574 312 469 312 326 c 256
 312 232 358 198 488 198 c 256
 547 198 595 205 645 220 c 257
EndSplineSet
EndChar

StartChar: uniE030
Encoding: 57392 57392 347
Width: 0
VWidth: 0
GlyphClass: 2
Flags: H
LayerCount: 2
Fore
SplineSet
-225 1864 m 256
 -225 1805 -206 1753 -178 1711 c 257
 -246 1668 l 257
 -284 1725 -309 1793 -309 1867 c 256
 -309 2061 -152 2218 42 2218 c 257
 43 2138 l 257
 -103 2138 -225 2015 -225 1864 c 256
EndSplineSet
EndChar

StartChar: uniE031
Encoding: 57393 57393 348
Width: 0
VWidth: 0
GlyphClass: 2
Flags: H
LayerCount: 2
Fore
SplineSet
184 1762 m 257
 221 1680 l 257
 -184 1496 l 257
 -221 1578 l 257
 184 1762 l 257
EndSplineSet
EndChar

StartChar: uniE032
Encoding: 57394 57394 349
Width: 0
VWidth: 0
GlyphClass: 2
Flags: H
LayerCount: 2
Fore
SplineSet
16 1697 m 257
 -49 1726 -118 1777 -118 1861 c 256
 -118 1957 -32 2029 50 2029 c 256
 152 2029 196 1934 196 1870 c 256
 196 1666 -17 1544 -172 1498 c 257
 -200 1584 l 257
 -122 1608 -44 1647 16 1697 c 257
77 1769 m 257
 96 1801 106 1835 106 1870 c 256
 106 1904 85 1939 50 1939 c 256
 16 1939 -28 1900 -28 1862 c 256
 -28 1826 7 1794 77 1769 c 257
EndSplineSet
EndChar

StartChar: uniE033
Encoding: 57395 57395 350
Width: 0
VWidth: 0
GlyphClass: 2
Flags: H
LayerCount: 2
Fore
SplineSet
171 1697 m 256
 171 1755 159 1798 141 1848 c 257
 226 1878 l 257
 246 1822 261 1767 261 1697 c 256
 261 1599 202 1530 124 1530 c 256
 76 1530 31 1556 0 1600 c 257
 -32 1554 -76 1530 -124 1530 c 256
 -202 1530 -261 1599 -261 1697 c 256
 -261 1767 -246 1822 -226 1878 c 257
 -141 1848 l 257
 -159 1798 -171 1755 -171 1697 c 256
 -171 1634 -143 1620 -115 1620 c 256
 -86 1620 -45 1643 -45 1705 c 258
 -45 1783 l 257
 45 1783 l 257
 45 1705 l 258
 45 1643 86 1620 116 1620 c 256
 143 1620 171 1634 171 1697 c 256
EndSplineSet
EndChar

StartChar: uniE034
Encoding: 57396 57396 351
Width: 0
VWidth: 0
GlyphClass: 2
Flags: H
LayerCount: 2
Fore
SplineSet
0 1848 m 256
 -61 1848 -109 1801 -109 1740 c 256
 -109 1679 -60 1630 0 1630 c 256
 60 1630 109 1680 109 1740 c 256
 109 1800 61 1848 0 1848 c 256
0 1938 m 256
 109 1938 199 1850 199 1740 c 256
 199 1630 110 1540 0 1540 c 256
 -112 1540 -199 1631 -199 1740 c 256
 -199 1849 -112 1938 0 1938 c 256
EndSplineSet
EndChar

StartChar: uniE035
Encoding: 57397 57397 352
Width: 0
VWidth: 0
GlyphClass: 2
Flags: H
LayerCount: 2
Fore
SplineSet
-262 1534 m 257
 -232 1594 -175 1664 -87 1664 c 256
 -49 1664 -10 1650 26 1622 c 256
 51 1602 70 1597 86 1597 c 256
 122 1597 157 1632 178 1680 c 257
 262 1645 l 257
 234 1577 175 1507 86 1507 c 256
 47 1507 8 1522 -30 1550 c 256
 -54 1568 -73 1574 -87 1574 c 256
 -123 1574 -159 1539 -181 1495 c 257
 -262 1534 l 257
EndSplineSet
EndChar

StartChar: uniE036
Encoding: 57398 57398 353
Width: 0
VWidth: 0
GlyphClass: 2
Flags: H
LayerCount: 2
Fore
SplineSet
-184 1495 m 257
 -221 1577 l 257
 -126 1620 l 257
 -166 1670 -186 1727 -186 1781 c 256
 -186 1883 -110 1972 22 1972 c 258
 110 1972 l 257
 110 1882 l 257
 22 1882 l 258
 -64 1882 -96 1835 -96 1781 c 256
 -96 1743 -77 1696 -40 1659 c 257
 184 1761 l 257
 222 1679 l 257
 -184 1495 l 257
EndSplineSet
EndChar

StartChar: uniE037
Encoding: 57399 57399 354
Width: 0
VWidth: 0
GlyphClass: 2
Flags: H
LayerCount: 2
Fore
SplineSet
-245 1834 m 257
 -173 1888 l 257
 0 1657 l 257
 173 1888 l 257
 245 1834 l 257
 0 1507 l 257
 -245 1834 l 257
EndSplineSet
EndChar

StartChar: uniE038
Encoding: 57400 57400 355
Width: 1782
VWidth: 0
GlyphClass: 2
Flags: HW
LayerCount: 2
Fore
SplineSet
1654 752 m 257
 1682 660 1702 546 1702 444 c 256
 1702 74 1325 0 891 0 c 256
 457 0 80 74 80 444 c 256
 80 546 100 660 128 752 c 257
 322 698 l 257
 299 623 279 526 279 450 c 256
 279 242 543 200 891 200 c 256
 1239 200 1503 242 1503 450 c 256
 1503 526 1483 623 1460 698 c 257
 1654 752 l 257
EndSplineSet
EndChar

StartChar: uniE039
Encoding: 57401 57401 356
Width: 1415
VWidth: 0
GlyphClass: 2
Flags: HW
LayerCount: 2
Fore
SplineSet
1132 221 m 257
 1114 419 1057 574 957 574 c 256
 881 574 799 471 799 328 c 256
 799 234 845 198 975 198 c 256
 1034 198 1082 206 1132 221 c 257
1130 16 m 257
 1084 6 1029 -2 975 -2 c 256
 789 -2 599 89 599 328 c 256
 599 532 733 774 957 774 c 256
 1307 774 1337 291 1337 122 c 256
 1337 -292 1052 -504 684 -504 c 256
 362 -504 78 -335 78 36 c 256
 78 190 136 361 216 523 c 257
 391 434 l 257
 319 290 278 138 278 36 c 256
 278 -178 413 -304 684 -304 c 256
 942 -304 1101 -188 1130 16 c 257
EndSplineSet
EndChar

StartChar: uniE03A
Encoding: 57402 57402 357
Width: 0
VWidth: 0
GlyphClass: 2
Flags: H
LayerCount: 2
Fore
SplineSet
-45 1879 m 257
 45 1879 l 257
 45 1540 l 257
 -45 1540 l 257
 -45 1879 l 257
EndSplineSet
EndChar

StartChar: uniE03B
Encoding: 57403 57403 358
Width: 1752
VWidth: 0
GlyphClass: 2
Flags: HW
LayerCount: 2
Fore
SplineSet
1469 588 m 257
 1451 786 1394 942 1294 942 c 256
 1218 942 1136 837 1136 694 c 256
 1136 600 1182 566 1312 566 c 256
 1371 566 1419 573 1469 588 c 257
1674 490 m 256
 1674 74 1316 0 852 0 c 256
 378 0 80 71 80 439 c 256
 80 541 103 650 131 742 c 257
 324 688 l 257
 301 613 280 522 280 446 c 256
 280 236 472 200 854 200 c 256
 1274 200 1440 250 1476 400 c 257
 1416 386 1356 378 1292 378 c 256
 1098 378 936 467 936 694 c 256
 936 898 1070 1142 1294 1142 c 256
 1645 1142 1674 655 1674 490 c 256
EndSplineSet
EndChar

StartChar: uniE03C
Encoding: 57404 57404 359
Width: 1848
VWidth: 0
GlyphClass: 2
Flags: HW
LayerCount: 2
Fore
SplineSet
131 742 m 257
 324 688 l 257
 301 613 280 522 280 446 c 256
 280 235 484 200 804 200 c 256
 1104 200 1292 245 1292 383 c 256
 1292 516 1062 719 844 878 c 257
 844 1071 l 257
 1093 1233 1401 1358 1702 1422 c 257
 1743 1226 l 257
 1514 1176 1270 1090 1069 974 c 257
 1069 956 l 257
 1281 790 1492 590 1492 368 c 256
 1492 50 1108 0 782 0 c 256
 395 0 80 72 80 439 c 256
 80 541 103 650 131 742 c 257
EndSplineSet
EndChar

StartChar: uniE03D
Encoding: 57405 57405 360
Width: 1512
VWidth: 0
GlyphClass: 2
Flags: HW
LayerCount: 2
Fore
SplineSet
1232 94 m 256
 1232 248 1144 444 1075 584 c 257
 1254 669 l 257
 1330 517 1433 308 1433 86 c 256
 1433 -316 1073 -504 732 -504 c 256
 401 -504 79 -323 79 51 c 256
 79 246 161 459 246 619 c 257
 420 518 l 257
 348 384 278 206 278 50 c 256
 278 -176 440 -304 724 -304 c 256
 1012 -304 1232 -160 1232 94 c 256
EndSplineSet
EndChar

StartChar: uniE03E
Encoding: 57406 57406 361
Width: 1449
VWidth: 0
GlyphClass: 2
Flags: HW
LayerCount: 2
Fore
SplineSet
1327 766 m 257
 1266 576 l 257
 1210 595 1142 606 1080 606 c 256
 876 606 778 501 778 353 c 256
 778 239 854 219 1026 210 c 256
 1192 202 1367 154 1367 -94 c 256
 1367 -389 1053 -504 728 -504 c 256
 381 -504 103 -352 103 10 c 256
 103 158 134 333 171 451 c 257
 362 391 l 257
 332 284 303 132 303 10 c 256
 303 -204 433 -304 736 -304 c 256
 1017 -304 1167 -221 1167 -102 c 256
 1167 -14 1131 3 981 11 c 256
 770 22 578 77 578 326 c 256
 578 610 768 806 1086 806 c 256
 1160 806 1249 791 1327 766 c 257
EndSplineSet
EndChar

StartChar: uniE03F
Encoding: 57407 57407 362
Width: 1864
VWidth: 0
GlyphClass: 2
Flags: HW
LayerCount: 2
Fore
SplineSet
1864 200 m 257
 1864 0 l 257
 1864 0 l 257
 1654 0 1532 85 1446 218 c 257
 1348 30 1048 0 782 0 c 256
 396 0 80 72 80 439 c 256
 80 541 103 650 131 742 c 257
 324 688 l 257
 301 613 280 522 280 446 c 256
 280 235 484 200 804 200 c 256
 1104 200 1292 245 1292 383 c 256
 1292 516 1062 719 844 878 c 257
 844 1071 l 257
 1093 1233 1401 1358 1702 1422 c 257
 1743 1226 l 257
 1514 1176 1270 1090 1069 974 c 257
 1069 956 l 257
 1312 776 1423 604 1502 458 c 256
 1591 295 1654 200 1864 200 c 257
 1864 200 l 257
EndSplineSet
EndChar

StartChar: uniE040
Encoding: 57408 57408 363
Width: 1660
VWidth: 0
GlyphClass: 2
Flags: HW
LayerCount: 2
Fore
SplineSet
247 619 m 257
 420 518 l 257
 347 383 278 206 278 50 c 256
 278 -176 439 -304 725 -304 c 256
 1013 -304 1232 -160 1232 94 c 256
 1232 248 1144 444 1075 584 c 257
 1253 668 l 257
 1392 350 l 258
 1438 241 1483 200 1659 200 c 258
 1660 200 l 257
 1660 0 l 257
 1659 0 l 258
 1569 0 1494 12 1428 44 c 257
 1395 -335 1068 -504 732 -504 c 256
 386 -504 79 -312 79 52 c 256
 79 248 161 459 247 619 c 257
EndSplineSet
EndChar

StartChar: uniE041
Encoding: 57409 57409 364
Width: 547
VWidth: 0
GlyphClass: 2
Flags: HW
LayerCount: 2
Fore
SplineSet
390 820 m 257
 436 684 464 550 464 432 c 256
 464 180 338 0 0 0 c 256
 -56 0 -100 44 -100 100 c 256
 -100 156 -56 200 0 200 c 256
 204 200 268 298 268 436 c 256
 268 533 236 648 202 756 c 257
 390 820 l 257
EndSplineSet
EndChar

StartChar: uniE042
Encoding: 57410 57410 365
Width: 767
VWidth: 0
GlyphClass: 2
Flags: HW
LayerCount: 2
Fore
SplineSet
0 200 m 256
 124 200 197 223 237 278 c 256
 273 328 284 403 284 512 c 258
 284 644 l 257
 484 644 l 257
 484 512 l 258
 484 406 493 331 528 282 c 256
 568 224 640 200 766 200 c 258
 767 200 l 257
 767 0 l 257
 766 0 l 257
 592 0 464 52 384 164 c 257
 304 51 173 0 0 0 c 256
 -56 0 -100 44 -100 100 c 256
 -100 156 -56 200 0 200 c 256
EndSplineSet
EndChar

StartChar: uniE043
Encoding: 57411 57411 366
Width: 1453
VWidth: 0
GlyphClass: 2
Flags: HW
LayerCount: 2
Fore
SplineSet
1453 200 m 257
 1453 0 l 257
 1303 0 l 257
 1351 -40 1372 -98 1372 -158 c 256
 1372 -412 1120 -583 738 -583 c 256
 350 -583 90 -392 90 -10 c 256
 90 236 167 432 253 620 c 257
 432 526 l 257
 356 357 288 186 288 -21 c 256
 288 -273 429 -383 734 -383 c 256
 1094 -383 1172 -241 1172 -174 c 256
 1172 -74 1052 0 692 0 c 257
 692 200 l 257
 1453 200 l 257
EndSplineSet
EndChar

StartChar: uniE044
Encoding: 57412 57412 367
Width: 596
VWidth: 0
GlyphClass: 2
Flags: HW
LayerCount: 2
Fore
SplineSet
150 1271 m 257
 350 1271 l 257
 350 416 l 258
 350 338 360 286 390 252 c 256
 425 212 488 200 595 200 c 257
 596 200 l 257
 596 0 l 257
 595 0 l 257
 443 0 330 38 254 114 c 256
 186 183 150 284 150 416 c 258
 150 1271 l 257
EndSplineSet
EndChar

StartChar: uniE045
Encoding: 57413 57413 368
Width: 1398
VWidth: 0
GlyphClass: 2
Flags: HW
LayerCount: 2
Fore
SplineSet
1232 -418 m 257
 1308 -603 l 257
 1151 -669 984 -714 750 -714 c 256
 409 -714 76 -580 76 -202 c 256
 76 230 521 418 965 552 c 257
 597 686 l 258
 561 698 531 702 507 702 c 256
 395 702 346 619 324 433 c 257
 124 455 l 257
 150 697 249 902 507 902 c 256
 555 902 607 895 662 875 c 258
 1257 649 l 257
 1257 436 l 257
 1195 420 1136 403 1078 386 c 257
 1149 286 1232 200 1397 200 c 258
 1398 200 l 257
 1398 0 l 257
 1397 0 l 258
 1139 0 982 154 876 323 c 257
 516 197 276 41 276 -202 c 256
 276 -424 489 -511 763 -511 c 256
 951 -511 1097 -474 1232 -418 c 257
EndSplineSet
EndChar

StartChar: uniE046
Encoding: 57414 57414 369
Width: 1316
VWidth: 0
GlyphClass: 2
Flags: HW
LayerCount: 2
Fore
SplineSet
76 470 m 257
 106 652 187 900 436 900 c 256
 501 900 570 882 642 848 c 258
 1207 596 l 257
 1207 402 l 257
 817 142 498 0 0 0 c 256
 -55 0 -100 45 -100 100 c 256
 -100 155 -55 200 0 200 c 256
 402 200 679 291 960 490 c 257
 554 668 l 258
 502 692 465 700 436 700 c 256
 363 700 304 624 274 438 c 257
 76 470 l 257
EndSplineSet
EndChar

StartChar: uniE047
Encoding: 57415 57415 370
Width: 1316
VWidth: 0
GlyphClass: 2
Flags: HW
LayerCount: 2
Fore
SplineSet
76 470 m 257
 106 652 187 900 436 900 c 256
 501 900 570 882 642 848 c 258
 1207 596 l 257
 1207 402 l 257
 1156 367 1106 335 1056 305 c 257
 1117 245 1189 200 1315 200 c 258
 1316 200 l 257
 1316 0 l 257
 1315 0 l 258
 1119 0 984 84 880 207 c 257
 617 71 353 0 0 0 c 256
 -55 0 -100 45 -100 100 c 256
 -100 155 -55 200 0 200 c 256
 402 200 679 291 960 490 c 257
 554 668 l 258
 502 692 465 700 436 700 c 256
 363 700 304 624 274 438 c 257
 76 470 l 257
EndSplineSet
EndChar

StartChar: uniE048
Encoding: 57416 57416 371
Width: 1180
VWidth: 0
GlyphClass: 2
Flags: HW
LayerCount: 2
Fore
SplineSet
1180 200 m 257
 1180 0 l 257
 1179 0 l 257
 1025 0 899 33 796 166 c 257
 718 48 572 0 429 0 c 256
 286 0 144 37 40 116 c 257
 142 290 l 257
 223 228 326 200 429 200 c 256
 583 200 665 270 665 360 c 256
 665 385 659 416 641 458 c 258
 464 875 l 257
 647 955 l 257
 861 454 l 258
 961 218 1003 200 1179 200 c 257
 1180 200 l 257
EndSplineSet
EndChar

StartChar: uniE049
Encoding: 57417 57417 372
Width: 960
VWidth: 0
GlyphClass: 2
Flags: HW
LayerCount: 2
Fore
SplineSet
454 580 m 257
 640 655 l 257
 726 380 l 258
 774 232 821 200 959 200 c 257
 960 200 l 257
 960 0 l 257
 959 0 l 258
 871 0 808 18 744 54 c 257
 718 -210 474 -411 160 -525 c 257
 92 -337 l 257
 386 -229 556 -77 556 154 c 256
 556 258 526 388 454 580 c 257
EndSplineSet
EndChar

StartChar: uniE04A
Encoding: 57418 57418 373
Width: 2614
VWidth: 0
GlyphClass: 2
Flags: HW
LayerCount: 2
Fore
SplineSet
2257 733 m 257
 2300 514 l 258
 2348 274 2365 200 2613 200 c 257
 2614 200 l 257
 2614 0 l 257
 2613 0 l 257
 2419 0 2305 58 2232 154 c 257
 2182 64 2096 0 1963 0 c 256
 1871 0 1773 36 1709 116 c 257
 1652 42 1573 0 1473 0 c 256
 1425 0 1375 11 1330 44 c 257
 1299 -328 1014 -504 684 -504 c 256
 362 -504 78 -335 78 36 c 256
 78 208 148 422 248 598 c 257
 422 504 l 257
 331 344 278 154 278 36 c 256
 278 -178 413 -304 684 -304 c 256
 978 -304 1140 -154 1140 90 c 256
 1140 220 1091 360 998 588 c 257
 1186 660 l 257
 1322 276 1360 200 1472 200 c 256
 1555 200 1605 252 1621 388 c 258
 1648 614 l 257
 1836 595 l 257
 1814 386 l 258
 1812 372 1813 359 1813 346 c 256
 1813 232 1886 200 1960 200 c 256
 2062 200 2106 266 2106 391 c 256
 2106 439 2100 494 2088 556 c 258
 2061 693 l 257
 2257 733 l 257
EndSplineSet
EndChar

StartChar: uniE04B
Encoding: 57419 57419 374
Width: 1538
VWidth: 0
GlyphClass: 2
Flags: HW
LayerCount: 2
Fore
SplineSet
1415 730 m 257
 1443 598 1460 508 1460 366 c 256
 1460 273 1433 188 1385 124 c 256
 1327 47 1238 0 1128 0 c 256
 1020 0 934 51 880 124 c 257
 826 50 740 0 632 0 c 256
 512 0 422 63 368 148 c 257
 292 51 172 0 0 0 c 256
 -56 0 -100 44 -100 100 c 256
 -100 156 -56 200 0 200 c 256
 122 200 190 222 228 270 c 256
 267 319 284 404 284 540 c 258
 284 642 l 257
 484 642 l 257
 484 458 l 258
 484 374 499 302 528 257 c 256
 551 220 585 200 634 200 c 256
 683 200 719 220 742 257 c 256
 771 302 785 374 785 458 c 258
 785 632 l 257
 975 632 l 257
 975 458 l 258
 975 374 990 303 1018 259 c 256
 1041 221 1076 200 1126 200 c 256
 1185 200 1223 226 1241 270 c 256
 1254 297 1260 329 1260 366 c 256
 1260 494 1244 578 1220 688 c 257
 1415 730 l 257
EndSplineSet
EndChar

StartChar: uniE04C
Encoding: 57420 57420 375
Width: 1735
VWidth: 0
GlyphClass: 2
Flags: HW
LayerCount: 2
Fore
SplineSet
1415 730 m 257
 1446 500 l 258
 1463 389 1488 302 1536 258 c 256
 1572 223 1631 200 1734 200 c 257
 1735 200 l 257
 1735 0 l 257
 1734 0 l 257
 1586 0 1466 42 1385 134 c 257
 1331 54 1242 0 1128 0 c 256
 1019 0 934 53 880 126 c 257
 826 52 741 0 632 0 c 256
 512 0 422 63 368 148 c 257
 292 51 172 0 0 0 c 256
 -56 0 -100 44 -100 100 c 256
 -100 156 -56 200 0 200 c 256
 122 200 190 223 228 270 c 256
 268 319 284 404 284 540 c 258
 284 642 l 257
 484 642 l 257
 484 458 l 258
 484 377 498 302 528 256 c 256
 550 220 584 200 634 200 c 256
 687 200 725 224 747 263 c 256
 777 313 785 386 785 458 c 258
 785 632 l 257
 975 632 l 257
 975 458 l 258
 975 386 984 312 1014 262 c 256
 1037 224 1074 200 1126 200 c 256
 1176 200 1212 220 1232 254 c 256
 1250 283 1258 322 1258 366 c 256
 1258 446 1243 560 1217 699 c 257
 1415 730 l 257
EndSplineSet
EndChar

StartChar: uniE04D
Encoding: 57421 57421 376
Width: 2416
VWidth: 0
GlyphClass: 2
Flags: HW
LayerCount: 2
Fore
SplineSet
1298 353 m 257
 1461 628 1673 748 1864 748 c 256
 2066 748 2243 609 2243 390 c 256
 2243 338 2232 294 2213 254 c 257
 2245 222 2302 200 2415 200 c 257
 2416 200 l 257
 2416 0 l 257
 2415 0 l 257
 2265 0 2155 35 2079 103 c 257
 1965 29 1811 -2 1671 -2 c 256
 1559 -2 1435 22 1334 58 c 257
 1300 -324 1026 -504 684 -504 c 256
 362 -504 78 -335 78 36 c 256
 78 208 148 422 248 598 c 257
 422 504 l 257
 331 344 278 154 278 36 c 256
 278 -178 413 -304 684 -304 c 256
 978 -304 1140 -154 1140 90 c 256
 1140 220 1091 360 998 588 c 257
 1186 660 l 257
 1232 560 1268 457 1298 353 c 257
1454 229 m 257
 1522 209 1597 198 1671 198 c 256
 1911 198 2043 285 2043 390 c 256
 2043 482 1974 548 1864 548 c 256
 1749 548 1593 475 1454 229 c 257
EndSplineSet
EndChar

StartChar: uniE04E
Encoding: 57422 57422 377
Width: 1612
VWidth: 0
GlyphClass: 2
Flags: HW
LayerCount: 2
Fore
SplineSet
0 200 m 256
 120 200 180 227 214 261 c 256
 254 302 282 384 284 526 c 258
 284 642 l 257
 484 642 l 257
 484 459 l 258
 484 396 500 356 528 326 c 257
 717 654 956 788 1157 788 c 256
 1332 788 1512 672 1512 458 c 256
 1512 144 1102 0 829 0 c 256
 631 0 465 24 371 142 c 257
 289 40 158 0 0 0 c 256
 -56 0 -100 44 -100 100 c 256
 -100 156 -56 200 0 200 c 256
684 211 m 257
 724 203 772 200 829 200 c 256
 1117 200 1312 332 1312 448 c 256
 1312 534 1245 588 1147 588 c 256
 1032 588 848 505 684 211 c 257
EndSplineSet
EndChar

StartChar: uniE04F
Encoding: 57423 57423 378
Width: 1635
VWidth: 0
GlyphClass: 2
Flags: HW
LayerCount: 2
Fore
SplineSet
684 210 m 257
 724 202 772 198 829 198 c 256
 1117 198 1312 332 1312 448 c 256
 1312 534 1245 588 1147 588 c 256
 1032 588 848 504 684 210 c 257
484 642 m 257
 484 457 l 258
 484 394 499 355 525 326 c 257
 714 654 956 788 1157 788 c 256
 1332 788 1512 672 1512 458 c 256
 1512 380 1484 312 1439 254 c 257
 1477 216 1536 200 1634 200 c 257
 1635 200 l 257
 1635 0 l 257
 1634 0 l 257
 1486 0 1366 36 1284 118 c 257
 1148 38 973 0 829 0 c 256
 631 0 464 24 370 142 c 257
 288 42 161 0 0 0 c 256
 -55 0 -100 45 -100 100 c 256
 -100 155 -55 200 0 200 c 256
 122 200 186 228 222 269 c 256
 266 319 284 412 284 540 c 258
 284 642 l 257
 484 642 l 257
EndSplineSet
EndChar

StartChar: uniE050
Encoding: 57424 57424 379
Width: 1538
VWidth: 0
GlyphClass: 2
Flags: HW
LayerCount: 2
Fore
SplineSet
601 202 m 257
 1165 218 1215 322 1215 441 c 256
 1215 527 1152 588 1050 588 c 256
 940 588 726 480 601 202 c 257
378 200 m 257
 378 1271 l 257
 578 1271 l 257
 578 487 l 257
 726 687 917 788 1060 788 c 256
 1235 788 1415 672 1415 458 c 256
 1415 378 1397 307 1353 246 c 257
 1388 214 1453 200 1537 200 c 257
 1538 200 l 257
 1538 0 l 257
 1537 0 l 257
 1393 0 1280 30 1194 110 c 257
 1048 36 821 0 478 0 c 258
 80 0 l 257
 80 200 l 257
 378 200 l 257
EndSplineSet
EndChar

StartChar: uniE051
Encoding: 57425 57425 380
Width: 1317
VWidth: 0
GlyphClass: 2
Flags: HW
LayerCount: 2
Fore
SplineSet
381 202 m 257
 945 218 995 322 995 441 c 256
 995 527 932 588 830 588 c 256
 719 588 506 480 381 202 c 257
0 200 m 258
 158 200 l 257
 158 1271 l 257
 358 1271 l 257
 358 487 l 257
 506 687 697 788 840 788 c 256
 1015 788 1195 672 1195 458 c 256
 1195 157 950 0 258 0 c 258
 0 0 l 258
 -56 0 -100 44 -100 100 c 256
 -100 156 -56 200 0 200 c 258
EndSplineSet
EndChar

StartChar: uniE052
Encoding: 57426 57426 381
Width: 1318
VWidth: 0
GlyphClass: 2
Flags: HW
LayerCount: 2
Fore
SplineSet
381 202 m 257
 945 218 995 322 995 441 c 256
 995 527 932 588 830 588 c 256
 720 588 506 480 381 202 c 257
0 200 m 258
 158 201 l 257
 158 1271 l 257
 358 1271 l 257
 358 487 l 257
 506 686 696 788 840 788 c 256
 1015 788 1195 672 1195 458 c 256
 1195 378 1177 307 1133 246 c 257
 1169 214 1233 200 1317 200 c 257
 1318 200 l 257
 1318 0 l 257
 1317 0 l 257
 1173 0 1060 30 974 110 c 257
 828 36 601 0 258 0 c 258
 0 0 l 258
 -56 0 -100 44 -100 100 c 256
 -100 156 -56 200 0 200 c 258
EndSplineSet
EndChar

StartChar: uniE053
Encoding: 57427 57427 382
Width: 1144
VWidth: 0
GlyphClass: 2
Flags: HW
LayerCount: 2
Fore
SplineSet
1017 517 m 256
 1017 394 942 304 858 240 c 257
 942 215 1033 200 1143 200 c 257
 1144 200 l 257
 1144 0 l 257
 1143 0 l 257
 944 0 778 33 638 99 c 257
 439 12 265 -109 265 -279 c 256
 265 -439 473 -542 720 -542 c 256
 844 -542 970 -515 1056 -474 c 257
 1127 -660 l 257
 1003 -712 855 -740 712 -740 c 256
 379 -740 65 -590 65 -282 c 256
 65 -29 267 131 445 225 c 257
 327 307 224 406 132 511 c 257
 138 676 l 257
 252 766 410 830 594 830 c 256
 790 830 1017 728 1017 517 c 256
817 504 m 256
 817 574 721 630 603 630 c 256
 513 630 410 602 358 567 c 257
 357 552 l 257
 439 464 532 379 644 318 c 257
 758 375 817 440 817 504 c 256
EndSplineSet
EndChar

StartChar: uniE054
Encoding: 57428 57428 383
Width: 1083
VWidth: 0
GlyphClass: 2
Flags: HW
LayerCount: 2
Fore
SplineSet
303 434 m 256
 303 327 408 270 544 270 c 256
 568 270 592 270 614 274 c 258
 924 334 l 257
 960 137 l 257
 456 41 l 258
 313 14 162 0 0 0 c 256
 -56 0 -100 46 -100 100 c 256
 -100 154 -56 200 0 200 c 256
 74 200 144 204 212 212 c 257
 148 264 103 338 103 434 c 256
 103 697 296 892 527 892 c 256
 707 892 829 798 905 700 c 257
 750 570 l 257
 706 632 640 692 527 692 c 256
 407 692 303 591 303 434 c 256
EndSplineSet
EndChar

StartChar: uniE055
Encoding: 57429 57429 384
Width: 1026
VWidth: 0
GlyphClass: 2
Flags: HW
LayerCount: 2
Fore
SplineSet
73 629 m 257
 175 757 358 830 549 830 c 256
 727 830 957 730 957 495 c 256
 957 383 896 281 808 225 c 257
 868 209 945 200 1025 200 c 257
 1026 200 l 257
 1026 0 l 257
 1025 0 l 257
 863 0 721 30 596 88 c 257
 427 24 205 0 0 0 c 256
 -56 0 -100 44 -100 100 c 256
 -100 156 -56 200 0 200 c 256
 128 200 275 210 368 229 c 257
 262 289 155 392 73 474 c 257
 73 629 l 257
295 553 m 257
 295 534 l 257
 391 447 484 365 602 308 c 257
 707 358 757 425 757 488 c 256
 757 570 679 630 549 630 c 256
 457 630 353 597 295 553 c 257
EndSplineSet
EndChar

StartChar: uniE056
Encoding: 57430 57430 385
Width: 1748
VWidth: 0
GlyphClass: 2
Flags: HW
LayerCount: 2
Fore
SplineSet
1265 1284 m 257
 1465 1284 l 257
 1465 542 l 258
 1465 400 1478 304 1542 252 c 256
 1584 217 1649 200 1747 200 c 258
 1748 200 l 257
 1748 0 l 257
 1747 0 l 257
 1640 0 1544 22 1466 70 c 256
 1425 96 1390 129 1364 172 c 257
 1342 145 1315 122 1283 102 c 256
 1179 26 1016 0 786 0 c 256
 462 0 78 42 78 418 c 256
 78 512 95 614 115 696 c 257
 310 650 l 257
 294 582 278 484 278 418 c 256
 278 250 442 200 798 200 c 256
 1020 200 1141 210 1204 278 c 256
 1250 328 1265 411 1265 542 c 258
 1265 1284 l 257
EndSplineSet
EndChar

StartChar: uniE057
Encoding: 57431 57431 386
Width: 999
VWidth: 0
GlyphClass: 2
Flags: HW
LayerCount: 2
Fore
SplineSet
0 200 m 258
 121 200 l 258
 357 200 444 265 444 383 c 256
 444 516 215 719 -3 878 c 257
 -3 1071 l 257
 246 1233 554 1358 855 1422 c 257
 896 1226 l 257
 667 1176 423 1090 222 974 c 257
 222 956 l 257
 434 790 648 590 648 368 c 256
 648 78 344 0 124 0 c 258
 0 0 l 258
 -56 0 -100 44 -100 100 c 257
 -100 156 -56 200 0 200 c 258
EndSplineSet
EndChar

StartChar: uniE058
Encoding: 57432 57432 387
Width: 1020
VWidth: 0
GlyphClass: 2
Flags: HW
LayerCount: 2
Fore
SplineSet
0 200 m 258
 121 200 l 258
 357 200 444 265 444 383 c 256
 444 516 215 719 -3 878 c 257
 -3 1071 l 257
 246 1233 554 1358 855 1422 c 257
 896 1226 l 257
 667 1176 423 1090 222 974 c 257
 222 956 l 257
 465 776 576 604 655 458 c 256
 743 295 809 200 1019 200 c 258
 1020 200 l 257
 1020 0 l 257
 1019 0 l 258
 810 0 676 84 589 217 c 257
 517 70 358 0 124 0 c 258
 0 0 l 258
 -56 0 -100 44 -100 100 c 257
 -100 156 -56 200 0 200 c 258
EndSplineSet
EndChar

StartChar: uniE059
Encoding: 57433 57433 388
Width: 1439
VWidth: 0
GlyphClass: 2
Flags: HW
LayerCount: 2
Fore
SplineSet
1439 200 m 257
 1439 0 l 257
 1438 0 l 257
 1322 0 1225 25 1155 86 c 257
 1155 35 l 258
 1155 -299 932 -504 602 -504 c 256
 292 -504 78 -318 78 -18 c 256
 78 102 108 239 170 391 c 257
 348 317 l 257
 296 183 277 65 277 -24 c 256
 277 -202 385 -304 618 -304 c 256
 850 -304 957 -204 957 70 c 258
 957 1271 l 257
 1157 1271 l 257
 1157 540 l 258
 1157 400 1181 314 1215 270 c 256
 1249 228 1306 200 1438 200 c 257
 1439 200 l 257
EndSplineSet
EndChar

StartChar: uniE05A
Encoding: 57434 57434 389
Width: 596
VWidth: 0
GlyphClass: 2
Flags: HW
LayerCount: 2
Fore
SplineSet
446 416 m 258
 446 284 410 183 342 114 c 256
 266 38 152 0 0 0 c 256
 -55 0 -100 45 -100 100 c 256
 -100 155 -55 200 0 200 c 256
 108 200 171 212 206 252 c 256
 236 286 246 338 246 416 c 258
 246 1271 l 257
 446 1271 l 257
 446 416 l 258
EndSplineSet
EndChar

StartChar: uniE05B
Encoding: 57435 57435 390
Width: 692
VWidth: 0
GlyphClass: 2
Flags: HW
LayerCount: 2
Fore
SplineSet
0 200 m 256
 113 200 166 226 196 264 c 256
 232 310 246 389 246 499 c 258
 246 1271 l 257
 446 1271 l 257
 446 499 l 258
 446 391 460 312 494 266 c 256
 523 227 577 200 691 200 c 257
 692 200 l 257
 692 0 l 257
 691 0 l 257
 540 0 421 43 346 141 c 257
 270 41 152 0 0 0 c 256
 -56 0 -100 44 -100 100 c 256
 -100 156 -56 200 0 200 c 256
EndSplineSet
EndChar

StartChar: uniE05C
Encoding: 57436 57436 391
Width: 1329
VWidth: 0
GlyphClass: 2
Flags: HW
LayerCount: 2
Fore
SplineSet
550 254 m 257
 630 230 713 200 793 200 c 256
 873 200 919 230 919 326 c 256
 919 461 844 544 760 544 c 256
 642 544 572 413 550 254 c 257
1329 0 m 257
 1328 0 l 257
 1216 0 1122 30 1040 106 c 257
 978 30 885 0 793 0 c 256
 689 0 583 28 504 60 c 256
 468 74 442 84 401 84 c 256
 331 84 278 36 278 -76 c 258
 278 -785 l 257
 78 -785 l 257
 78 -76 l 258
 78 98 181 253 352 278 c 257
 378 463 474 744 760 744 c 256
 973 744 1095 562 1116 384 c 256
 1134 238 1192 200 1328 200 c 257
 1329 200 l 257
 1329 0 l 257
EndSplineSet
EndChar

StartChar: uniE05D
Encoding: 57437 57437 392
Width: 1046
VWidth: 0
GlyphClass: 2
Flags: HW
LayerCount: 2
Fore
SplineSet
0 200 m 256
 100 200 131 228 182 334 c 256
 197 366 212 403 228 446 c 256
 286 606 404 764 605 764 c 256
 841 764 968 531 968 346 c 256
 968 162 828 0 626 0 c 256
 479 0 390 72 304 154 c 257
 234 58 136 0 0 0 c 256
 -56 0 -100 44 -100 100 c 256
 -100 156 -56 200 0 200 c 256
401 338 m 257
 457 268 538 200 626 200 c 256
 699 200 768 257 768 346 c 256
 768 464 683 564 605 564 c 256
 527 564 464 509 416 377 c 257
 401 338 l 257
EndSplineSet
EndChar

StartChar: uniE05E
Encoding: 57438 57438 393
Width: 1238
VWidth: 0
GlyphClass: 2
Flags: HW
LayerCount: 2
Fore
SplineSet
0 200 m 256
 100 200 131 228 182 334 c 256
 197 366 212 403 228 446 c 256
 286 606 404 764 605 764 c 256
 821 764 946 568 966 394 c 256
 974 338 992 297 1014 270 c 256
 1047 228 1105 200 1237 200 c 257
 1238 200 l 257
 1238 0 l 257
 1237 0 l 257
 1089 0 968 35 886 122 c 257
 830 48 728 0 628 0 c 256
 480 0 390 72 304 154 c 257
 234 58 136 0 0 0 c 256
 -56 0 -100 44 -100 100 c 256
 -100 156 -56 200 0 200 c 256
401 338 m 257
 457 268 538 200 628 200 c 256
 699 200 768 257 768 346 c 256
 768 464 683 564 605 564 c 256
 527 564 464 509 416 377 c 257
 401 338 l 257
EndSplineSet
EndChar

StartChar: uniE05F
Encoding: 57439 57439 394
Width: 1041
VWidth: 0
GlyphClass: 2
Flags: HW
LayerCount: 2
Fore
SplineSet
581 682 m 257
 381 651 280 562 280 478 c 256
 280 401 335 354 477 354 c 256
 511 354 562 361 600 372 c 257
 581 682 l 257
1041 0 m 257
 1040 0 l 257
 850 0 737 52 656 178 c 257
 602 165 526 154 477 154 c 256
 303 154 80 234 80 470 c 256
 80 717 334 840 568 884 c 257
 562 1010 l 257
 762 1022 l 257
 795 454 l 258
 805 282 848 200 1040 200 c 257
 1041 200 l 257
 1041 0 l 257
EndSplineSet
EndChar

StartChar: uniE060
Encoding: 57440 57440 395
Width: 1293
VWidth: 0
GlyphClass: 2
Flags: HW
LayerCount: 2
Fore
SplineSet
0 200 m 256
 84 200 164 206 232 220 c 257
 154 288 97 378 97 484 c 256
 97 608 173 722 271 782 c 257
 122 836 l 257
 198 1018 l 257
 673 840 l 258
 988 722 1215 590 1215 334 c 256
 1215 152 1086 0 854 0 c 256
 760 0 596 26 473 70 c 257
 337 20 176 0 0 0 c 256
 -56 0 -100 44 -100 100 c 256
 -100 156 -56 200 0 200 c 256
478 284 m 257
 566 324 628 414 628 513 c 256
 628 605 593 680 499 680 c 256
 415 680 297 605 297 484 c 256
 297 405 369 337 478 284 c 257
674 226 m 257
 745 208 813 200 859 200 c 256
 970 200 1015 250 1015 334 c 256
 1015 424 932 508 780 580 c 257
 813 440 764 306 674 226 c 257
EndSplineSet
EndChar

StartChar: uniE061
Encoding: 57441 57441 396
Width: 986
VWidth: 0
GlyphClass: 2
Flags: HW
LayerCount: 2
Fore
SplineSet
332 229 m 257
 542 267 656 348 656 478 c 256
 656 571 617 616 544 616 c 256
 440 616 348 506 332 229 c 257
986 0 m 257
 985 0 l 257
 851 0 785 -46 785 -163 c 258
 785 -406 l 257
 634 -504 l 257
 385 -470 210 -266 154 4 c 257
 104 2 54 0 0 0 c 257
 -55 0 -100 45 -100 100 c 256
 -100 155 -55 200 0 200 c 257
 50 200 96 202 140 204 c 257
 152 526 258 816 544 816 c 256
 728 816 845 697 845 504 c 256
 845 258 594 67 344 27 c 257
 376 -133 488 -264 599 -293 c 257
 611 -286 l 257
 611 -162 l 258
 611 34 787 200 985 200 c 257
 986 200 l 257
 986 0 l 257
EndSplineSet
EndChar

StartChar: uniE062
Encoding: 57442 57442 397
Width: 928
VWidth: 0
GlyphClass: 2
Flags: HW
LayerCount: 2
Fore
SplineSet
836 0 m 257
 776 -273 531 -425 160 -523 c 257
 96 -334 l 257
 395 -259 570 -136 619 0 c 257
 488 0 l 258
 302 0 112 89 112 328 c 256
 112 532 246 774 470 774 c 256
 780 774 837 385 847 200 c 257
 928 200 l 257
 928 0 l 257
 836 0 l 257
646 200 m 257
 631 402 574 576 470 576 c 256
 394 576 312 472 312 329 c 256
 312 235 358 200 488 200 c 258
 646 200 l 257
EndSplineSet
EndChar

StartChar: uniE063
Encoding: 57443 57443 398
Width: 1033
VWidth: 0
GlyphClass: 2
Flags: HW
LayerCount: 2
Fore
SplineSet
664 522 m 257
 570 406 466 312 370 236 c 257
 369 220 l 257
 411 204 469 194 520 194 c 256
 666 194 748 224 748 280 c 256
 748 322 718 416 664 522 c 257
654 830 m 257
 724 970 762 1090 762 1271 c 257
 962 1271 l 257
 962 1010 895 853 782 668 c 257
 866 528 926 394 926 276 c 256
 926 32 666 -2 532 -2 c 256
 382 -2 244 46 142 110 c 257
 142 294 l 257
 278 394 418 505 542 671 c 257
 409 864 233 998 70 1108 c 257
 185 1273 l 257
 356 1156 518 1014 654 830 c 257
EndSplineSet
EndChar

StartChar: uniE064
Encoding: 57444 57444 399
Width: 1372
VWidth: 0
GlyphClass: 2
Flags: HW
LayerCount: 2
Fore
SplineSet
499 420 m 257
 299 408 l 257
 299 699 244 932 124 1210 c 257
 308 1288 l 257
 440 982 499 724 499 420 c 257
1372 0 m 257
 1371 0 l 257
 1181 0 1036 63 960 203 c 257
 805 41 531 0 100 0 c 257
 100 200 l 257
 754 200 888 282 888 540 c 258
 888 1271 l 257
 1088 1271 l 257
 1088 542 l 258
 1088 403 1112 316 1147 272 c 256
 1180 230 1239 200 1371 200 c 257
 1372 200 l 257
 1372 0 l 257
EndSplineSet
EndChar

StartChar: uniE065
Encoding: 57445 57445 400
Width: 1873
VWidth: 0
GlyphClass: 2
Flags: HW
LayerCount: 2
Fore
SplineSet
1706 619 m 257
 1678 518 1654 421 1654 351 c 256
 1654 251 1697 200 1872 200 c 258
 1873 200 l 257
 1873 0 l 257
 1872 0 l 257
 1662 0 1531 76 1482 213 c 257
 1302 45 1080 1 752 1 c 256
 342 1 77 146 77 463 c 256
 77 555 102 668 146 778 c 257
 331 708 l 257
 299 620 280 530 280 466 c 256
 280 280 425 201 778 201 c 256
 1320 201 1438 337 1512 668 c 257
 1706 619 l 257
EndSplineSet
EndChar

StartChar: uniE066
Encoding: 57446 57446 401
Width: 921
VWidth: 0
GlyphClass: 2
Flags: HW
LayerCount: 2
Fore
SplineSet
646 401 m 257
 588 387 528 378 464 378 c 256
 270 378 105 464 105 694 c 256
 105 898 239 1142 463 1142 c 256
 814 1142 843 655 843 490 c 256
 843 76 593 0 0 0 c 256
 -56 0 -100 44 -100 100 c 256
 -100 155 -56 200 0 200 c 256
 510 200 624 231 646 401 c 257
638 588 m 257
 620 786 563 942 463 942 c 256
 387 942 305 837 305 694 c 256
 305 600 351 566 481 566 c 256
 539 566 588 574 638 588 c 257
EndSplineSet
EndChar

StartChar: uniE067
Encoding: 57447 57447 402
Width: 1876
VWidth: 0
GlyphClass: 2
Flags: HW
LayerCount: 2
Fore
SplineSet
1416 66 m 257
 1266 17 1089 0 891 0 c 256
 509 0 79 45 79 434 c 256
 79 566 116 674 150 768 c 257
 340 705 l 257
 309 613 283 527 283 450 c 256
 283 258 473 200 891 200 c 256
 999 200 1099 207 1184 221 c 257
 1108 295 1062 392 1062 512 c 256
 1062 742 1216 888 1422 888 c 256
 1624 888 1782 742 1782 512 c 256
 1782 390 1735 292 1656 218 c 257
 1724 206 1797 200 1875 200 c 257
 1876 200 l 257
 1876 0 l 257
 1875 0 l 257
 1711 0 1548 20 1416 66 c 257
1420 280 m 257
 1526 328 1582 394 1582 512 c 256
 1582 623 1522 688 1422 688 c 256
 1320 688 1262 624 1262 512 c 256
 1262 397 1322 328 1420 280 c 257
EndSplineSet
EndChar

StartChar: uniE068
Encoding: 57448 57448 403
Width: 908
VWidth: 0
GlyphClass: 2
Flags: HW
LayerCount: 2
Fore
SplineSet
0 200 m 256
 78 200 153 206 219 218 c 257
 141 292 94 390 94 512 c 256
 94 742 248 888 454 888 c 256
 656 888 814 742 814 512 c 256
 814 390 766 292 689 218 c 257
 755 206 829 200 907 200 c 257
 908 200 l 257
 908 0 l 257
 907 0 l 257
 745 0 586 19 454 64 c 257
 322 18 162 0 0 0 c 256
 -56 0 -100 44 -100 100 c 256
 -100 156 -56 200 0 200 c 256
454 278 m 257
 555 327 614 396 614 512 c 256
 614 623 554 688 454 688 c 256
 352 688 294 624 294 512 c 256
 294 396 353 326 454 278 c 257
EndSplineSet
EndChar

StartChar: uniE069
Encoding: 57449 57449 404
Width: 1415
VWidth: 0
GlyphClass: 2
Flags: HW
LayerCount: 2
Fore
SplineSet
1128 0 m 257
 975 0 l 258
 789 0 599 89 599 328 c 256
 599 532 733 774 957 774 c 256
 1260 774 1324 407 1334 200 c 257
 1415 200 l 257
 1415 0 l 257
 1327 0 l 257
 1277 -334 1014 -504 684 -504 c 256
 362 -504 78 -335 78 36 c 256
 78 190 136 361 216 523 c 257
 391 434 l 257
 319 290 278 138 278 36 c 256
 278 -178 413 -304 684 -304 c 256
 936 -304 1092 -194 1128 0 c 257
1132 200 m 257
 1118 405 1059 576 957 576 c 256
 881 576 799 472 799 329 c 256
 799 235 845 200 975 200 c 258
 1132 200 l 257
EndSplineSet
EndChar

StartChar: uniFD3E
Encoding: 64830 64830 433
Width: 598
VWidth: 0
GlyphClass: 2
Flags: HW
LayerCount: 2
Fore
SplineSet
496 56 m 257
 328 -52 l 257
 186 171 100 422 100 730 c 256
 100 1038 186 1287 328 1510 c 257
 496 1402 l 257
 372 1210 300 1004 300 730 c 256
 300 456 372 248 496 56 c 257
EndSplineSet
EndChar

StartChar: uniFD3F
Encoding: 64831 64831 434
Width: 598
VWidth: 0
GlyphClass: 2
Flags: HW
LayerCount: 2
Fore
SplineSet
102 1402 m 257
 270 1510 l 257
 412 1287 498 1036 498 728 c 256
 498 420 412 171 270 -52 c 257
 102 56 l 257
 226 248 298 454 298 728 c 256
 298 1002 226 1210 102 1402 c 257
EndSplineSet
EndChar

StartChar: v
Encoding: 118 118 532
Width: 1086
VWidth: 0
GlyphClass: 2
Flags: HW
LayerCount: 2
Fore
SplineSet
858 1090 m 257
 1071 1090 l 257
 642 0 l 257
 446 0 l 257
 15 1090 l 257
 228 1090 l 257
 544 268 l 257
 858 1090 l 257
EndSplineSet
EndChar

StartChar: w
Encoding: 119 119 533
Width: 1559
VWidth: 0
GlyphClass: 2
Flags: HW
LayerCount: 2
Fore
SplineSet
1301 1090 m 257
 1509 1090 l 257
 1190 0 l 257
 988 0 l 257
 780 790 l 257
 572 0 l 257
 370 0 l 257
 50 1090 l 257
 258 1090 l 257
 470 299 l 257
 678 1090 l 257
 880 1090 l 257
 1090 299 l 257
 1301 1090 l 257
EndSplineSet
EndChar

StartChar: x
Encoding: 120 120 534
Width: 1224
VWidth: 0
GlyphClass: 2
Flags: HW
LayerCount: 2
Fore
SplineSet
946 1090 m 257
 1194 1090 l 257
 736 530 l 257
 1170 0 l 257
 920 0 l 257
 612 409 l 257
 303 0 l 257
 54 0 l 257
 488 530 l 257
 30 1090 l 257
 278 1090 l 257
 612 652 l 257
 946 1090 l 257
EndSplineSet
EndChar

StartChar: y
Encoding: 121 121 535
Width: 1085
VWidth: 0
GlyphClass: 2
Flags: HW
LayerCount: 2
Fore
SplineSet
858 1090 m 257
 1070 1090 l 257
 665 59 l 258
 581 -155 478 -410 160 -410 c 258
 80 -410 l 257
 80 -230 l 257
 160 -230 l 258
 302 -230 369 -145 446 39 c 257
 436 39 l 257
 15 1090 l 257
 228 1090 l 257
 546 278 l 257
 858 1090 l 257
EndSplineSet
EndChar

StartChar: z
Encoding: 122 122 539
Width: 1021
VWidth: 0
GlyphClass: 2
Flags: HW
LayerCount: 2
Fore
SplineSet
75 920 m 257
 75 1090 l 257
 946 1090 l 257
 946 933 l 257
 302 170 l 257
 946 170 l 257
 946 0 l 257
 75 0 l 257
 75 158 l 257
 718 920 l 257
 75 920 l 257
EndSplineSet
EndChar

StartChar: zero
Encoding: 48 48 540
Width: 1244
VWidth: 0
GlyphClass: 2
Flags: HW
LayerCount: 2
Fore
SplineSet
622 -32 m 256
 182 -32 112 454 112 730 c 256
 112 1006 182 1490 622 1490 c 256
 1062 1490 1132 1006 1132 730 c 256
 1132 454 1062 -32 622 -32 c 256
622 138 m 256
 846 138 932 430 932 730 c 256
 932 1030 846 1320 622 1320 c 256
 398 1320 312 1029 312 730 c 256
 312 431 398 138 622 138 c 256
EndSplineSet
EndChar
